<?xml version="1.0" encoding="UTF-8" standalone="no"?>
<!DOCTYPE svg PUBLIC "-//W3C//DTD SVG 1.1//EN"
 "http://www.w3.org/Graphics/SVG/1.1/DTD/svg11.dtd">
<!-- Generated by graphviz version 3.0.0 (20220226.1711)
 -->
<!-- Title: classes Pages: 1 -->
<svg width="4714pt" height="1207pt"
 viewBox="0.00 0.00 4714.00 1207.00" xmlns="http://www.w3.org/2000/svg" xmlns:xlink="http://www.w3.org/1999/xlink">
<g id="graph0" class="graph" transform="scale(1 1) rotate(0) translate(4 1203)">
<title>classes</title>
<polygon fill="white" stroke="transparent" points="-4,4 -4,-1203 4710,-1203 4710,4 -4,4"/>
<!-- PP2_Particle_Filter.tracking -->
<g id="node1" class="node">
<title>PP2_Particle_Filter.tracking</title>
<polygon fill="none" stroke="black" points="1998.5,-1162.5 1998.5,-1198.5 2112.5,-1198.5 2112.5,-1162.5 1998.5,-1162.5"/>
<text text-anchor="middle" x="2055.5" y="-1176.8" font-family="Times New Roman,serif" font-size="14.00">Tracking Schema</text>
</g>
<!-- PP2_Particle_Filter.particle_filter.ParticleFilter.ParticleFilter -->
<g id="node2" class="node">
<title>PP2_Particle_Filter.particle_filter.ParticleFilter.ParticleFilter</title>
<polygon fill="none" stroke="black" points="1631,-605.5 1631,-1124.5 1942,-1124.5 1942,-605.5 1631,-605.5"/>
<text text-anchor="middle" x="1786.5" y="-1109.3" font-family="Times New Roman,serif" font-size="14.00">ParticleFilter</text>
<polyline fill="none" stroke="black" points="1631,-1101.5 1942,-1101.5 "/>
<text text-anchor="start" x="1639" y="-1086.3" font-family="Times New Roman,serif" font-size="14.00">N : int</text>
<text text-anchor="start" x="1639" y="-1071.3" font-family="Times New Roman,serif" font-size="14.00">Q_motion : Optional[np.ndarray], ndarray</text>
<text text-anchor="start" x="1639" y="-1056.3" font-family="Times New Roman,serif" font-size="14.00">R : ndarray, Optional[np.ndarray]</text>
<text text-anchor="start" x="1639" y="-1041.3" font-family="Times New Roman,serif" font-size="14.00">alpha : float</text>
<text text-anchor="start" x="1639" y="-1026.3" font-family="Times New Roman,serif" font-size="14.00">descriptor</text>
<text text-anchor="start" x="1639" y="-1011.3" font-family="Times New Roman,serif" font-size="14.00">frame_size : tuple</text>
<text text-anchor="start" x="1639" y="-996.3" font-family="Times New Roman,serif" font-size="14.00">init_pos : ndarray</text>
<text text-anchor="start" x="1639" y="-981.3" font-family="Times New Roman,serif" font-size="14.00">mu : tuple</text>
<text text-anchor="start" x="1639" y="-966.3" font-family="Times New Roman,serif" font-size="14.00">particle_struct</text>
<text text-anchor="start" x="1639" y="-951.3" font-family="Times New Roman,serif" font-size="14.00">particles : ndarray</text>
<text text-anchor="start" x="1639" y="-936.3" font-family="Times New Roman,serif" font-size="14.00">prev_frame : ndarray</text>
<text text-anchor="start" x="1639" y="-921.3" font-family="Times New Roman,serif" font-size="14.00">prev_particles : ndarray</text>
<text text-anchor="start" x="1639" y="-906.3" font-family="Times New Roman,serif" font-size="14.00">prev_patch_descriptor</text>
<text text-anchor="start" x="1639" y="-891.3" font-family="Times New Roman,serif" font-size="14.00">ranges</text>
<text text-anchor="start" x="1639" y="-876.3" font-family="Times New Roman,serif" font-size="14.00">ratio</text>
<text text-anchor="start" x="1639" y="-861.3" font-family="Times New Roman,serif" font-size="14.00">resample_method</text>
<text text-anchor="start" x="1639" y="-846.3" font-family="Times New Roman,serif" font-size="14.00">rng</text>
<text text-anchor="start" x="1639" y="-831.3" font-family="Times New Roman,serif" font-size="14.00">search_area</text>
<text text-anchor="start" x="1639" y="-816.3" font-family="Times New Roman,serif" font-size="14.00">seed : Optional[int]</text>
<text text-anchor="start" x="1639" y="-801.3" font-family="Times New Roman,serif" font-size="14.00">sigma : tuple</text>
<text text-anchor="start" x="1639" y="-786.3" font-family="Times New Roman,serif" font-size="14.00">similarity</text>
<text text-anchor="start" x="1639" y="-771.3" font-family="Times New Roman,serif" font-size="14.00">slicer</text>
<text text-anchor="start" x="1639" y="-756.3" font-family="Times New Roman,serif" font-size="14.00">state_dim : int</text>
<text text-anchor="start" x="1639" y="-741.3" font-family="Times New Roman,serif" font-size="14.00">template_patch</text>
<text text-anchor="start" x="1639" y="-726.3" font-family="Times New Roman,serif" font-size="14.00">track_dim : int</text>
<text text-anchor="start" x="1639" y="-711.3" font-family="Times New Roman,serif" font-size="14.00">weights</text>
<polyline fill="none" stroke="black" points="1631,-703.5 1942,-703.5 "/>
<text text-anchor="start" x="1639" y="-688.3" font-family="Times New Roman,serif" font-size="14.00">estimate(): None</text>
<text text-anchor="start" x="1639" y="-673.3" font-family="Times New Roman,serif" font-size="14.00">forward(z: np.ndarray, dt: float, fraction: float): None</text>
<text text-anchor="start" x="1639" y="-658.3" font-family="Times New Roman,serif" font-size="14.00">neff(): float</text>
<text text-anchor="start" x="1639" y="-643.3" font-family="Times New Roman,serif" font-size="14.00">predict(dt: Optional[float]): None</text>
<text text-anchor="start" x="1639" y="-628.3" font-family="Times New Roman,serif" font-size="14.00">resample(fraction: Optional[float]): None</text>
<text text-anchor="start" x="1639" y="-613.3" font-family="Times New Roman,serif" font-size="14.00">update(z: np.ndarray): None</text>
</g>
<!-- PP2_Particle_Filter.particle_filter.ParticleFilter.ParticleFilter&#45;&gt;PP2_Particle_Filter.tracking -->
<g id="edge1" class="edge">
<title>PP2_Particle_Filter.particle_filter.ParticleFilter.ParticleFilter&#45;&gt;PP2_Particle_Filter.tracking</title>
<path fill="none" stroke="black" d="M1942.03,-1099.11C1950.33,-1108.12 1958.83,-1116.8 1967.5,-1125 1980.21,-1137.02 1995.98,-1147.79 2010.65,-1156.51"/>
<polygon fill="black" stroke="black" points="2010.66,-1156.51 2017.86,-1156.03 2021.07,-1162.48 2013.88,-1162.97 2010.66,-1156.51"/>
</g>
<!-- PP2_Particle_Filter.particle_filter.ParticleTemplate.Particle -->
<g id="node3" class="node">
<title>PP2_Particle_Filter.particle_filter.ParticleTemplate.Particle</title>
<polygon fill="none" stroke="black" points="1363,-227.5 1363,-356.5 2130,-356.5 2130,-227.5 1363,-227.5"/>
<text text-anchor="middle" x="1746.5" y="-341.3" font-family="Times New Roman,serif" font-size="14.00">Particle</text>
<polyline fill="none" stroke="black" points="1363,-333.5 2130,-333.5 "/>
<text text-anchor="start" x="1371" y="-318.3" font-family="Times New Roman,serif" font-size="14.00">particle_dim : int</text>
<text text-anchor="start" x="1371" y="-303.3" font-family="Times New Roman,serif" font-size="14.00">rng</text>
<polyline fill="none" stroke="black" points="1363,-295.5 2130,-295.5 "/>
<text text-anchor="start" x="1371" y="-280.3" font-family="Times New Roman,serif" font-size="14.00">create_gaussian_particles(N: int, track_dim: int, init_pos: np.ndarray, std: np.ndarray): np.ndarray</text>
<text text-anchor="start" x="1371" y="-265.3" font-family="Times New Roman,serif" font-size="14.00">create_uniform_particles(N: int, track_dim: int, ranges: np.ndarray): np.ndarray</text>
<text text-anchor="start" x="1371" y="-250.3" font-family="Times New Roman,serif" font-size="14.00">measurement_model(coeff_sim: np.ndarray, R: np.ndarray): np.ndarray</text>
<text text-anchor="start" x="1371" y="-235.3" font-family="Times New Roman,serif" font-size="14.00">motion_model(particles: np.ndarray, Q_model: np.ndarray, prev_particles: np.ndarray, frame_size: Tuple[int, int], dt: float): np.ndarray</text>
</g>
<!-- PP2_Particle_Filter.particle_filter.ParticleTemplate.Particle&#45;&gt;PP2_Particle_Filter.particle_filter.ParticleFilter.ParticleFilter -->
<g id="edge7" class="edge">
<title>PP2_Particle_Filter.particle_filter.ParticleTemplate.Particle&#45;&gt;PP2_Particle_Filter.particle_filter.ParticleFilter.ParticleFilter</title>
<path fill="none" stroke="black" d="M1750.95,-356.56C1755.03,-414.72 1761.34,-504.9 1767.53,-593.2"/>
<polygon fill="black" stroke="black" points="1767.54,-593.39 1771.95,-599.09 1768.38,-605.36 1763.97,-599.65 1767.54,-593.39"/>
<text text-anchor="middle" x="1805.5" y="-485.3" font-family="Times New Roman,serif" font-size="14.00" fill="red">particle_struct</text>
</g>
<!-- PP2_Particle_Filter.particle_filter.Particle.PredPosParticle2DBbox -->
<g id="node4" class="node">
<title>PP2_Particle_Filter.particle_filter.Particle.PredPosParticle2DBbox</title>
<polygon fill="none" stroke="black" points="1282,-0.5 1282,-159.5 2373,-159.5 2373,-0.5 1282,-0.5"/>
<text text-anchor="middle" x="1827.5" y="-144.3" font-family="Times New Roman,serif" font-size="14.00">PredPosParticle2DBbox</text>
<polyline fill="none" stroke="black" points="1282,-136.5 2373,-136.5 "/>
<text text-anchor="start" x="1290" y="-121.3" font-family="Times New Roman,serif" font-size="14.00">particle_dim : int</text>
<text text-anchor="start" x="1290" y="-106.3" font-family="Times New Roman,serif" font-size="14.00">ratio</text>
<text text-anchor="start" x="1290" y="-91.3" font-family="Times New Roman,serif" font-size="14.00">rng</text>
<polyline fill="none" stroke="black" points="1282,-83.5 2373,-83.5 "/>
<text text-anchor="start" x="1290" y="-68.3" font-family="Times New Roman,serif" font-size="14.00">compute_gamma(N: int, track_dim: int): np.ndarray</text>
<text text-anchor="start" x="1290" y="-53.3" font-family="Times New Roman,serif" font-size="14.00">create_gaussian_particles(N: int, track_dim: int, init_pos: np.ndarray, std: np.ndarray): np.ndarray</text>
<text text-anchor="start" x="1290" y="-38.3" font-family="Times New Roman,serif" font-size="14.00">create_uniform_particles(N: int, track_dim: int, ranges: np.ndarray): np.ndarray</text>
<text text-anchor="start" x="1290" y="-23.3" font-family="Times New Roman,serif" font-size="14.00">measurement_model(coeff_sim: np.ndarray, particles: np.ndarray, template_particle: np.ndarray, R: np.ndarray): np.ndarray</text>
<text text-anchor="start" x="1290" y="-8.3" font-family="Times New Roman,serif" font-size="14.00">motion_model(particles: np.ndarray, Q_model: np.ndarray, prev_particles: np.ndarray, template_particle: np.ndarray, search_area: Tuple[int, int], frame_size: Tuple[int, int], dt: float): np.ndarray</text>
</g>
<!-- PP2_Particle_Filter.particle_filter.Particle.PredPosParticle2DBbox&#45;&gt;PP2_Particle_Filter.particle_filter.ParticleTemplate.Particle -->
<g id="edge13" class="edge">
<title>PP2_Particle_Filter.particle_filter.Particle.PredPosParticle2DBbox&#45;&gt;PP2_Particle_Filter.particle_filter.ParticleTemplate.Particle</title>
<path fill="none" stroke="black" d="M1797.11,-159.79C1789.73,-178.91 1781.88,-199.26 1774.62,-218.09"/>
<polygon fill="none" stroke="black" points="1771.33,-216.9 1770.99,-227.49 1777.86,-219.42 1771.33,-216.9"/>
</g>
<!-- PP2_Particle_Filter.particle_filter.Particle.ConstAccelParticle2DBbox -->
<g id="node5" class="node">
<title>PP2_Particle_Filter.particle_filter.Particle.ConstAccelParticle2DBbox</title>
<polygon fill="none" stroke="black" points="2391.5,-8 2391.5,-152 3467.5,-152 3467.5,-8 2391.5,-8"/>
<text text-anchor="middle" x="2929.5" y="-136.8" font-family="Times New Roman,serif" font-size="14.00">ConstAccelParticle2DBbox</text>
<polyline fill="none" stroke="black" points="2391.5,-129 3467.5,-129 "/>
<text text-anchor="start" x="2399.5" y="-113.8" font-family="Times New Roman,serif" font-size="14.00">particle_dim : int</text>
<text text-anchor="start" x="2399.5" y="-98.8" font-family="Times New Roman,serif" font-size="14.00">rng</text>
<polyline fill="none" stroke="black" points="2391.5,-91 3467.5,-91 "/>
<text text-anchor="start" x="2399.5" y="-75.8" font-family="Times New Roman,serif" font-size="14.00">compute_gamma(N: int, track_dim: int): np.ndarray</text>
<text text-anchor="start" x="2399.5" y="-60.8" font-family="Times New Roman,serif" font-size="14.00">create_gaussian_particles(N: int, track_dim: int, init_pos: np.ndarray, std: np.ndarray): np.ndarray</text>
<text text-anchor="start" x="2399.5" y="-45.8" font-family="Times New Roman,serif" font-size="14.00">create_uniform_particles(N: int, track_dim: int, ranges: np.ndarray): np.ndarray</text>
<text text-anchor="start" x="2399.5" y="-30.8" font-family="Times New Roman,serif" font-size="14.00">measurement_model(coeff_sim: np.ndarray, particles: np.ndarray, template_particle: np.ndarray, R: np.ndarray): np.ndarray</text>
<text text-anchor="start" x="2399.5" y="-15.8" font-family="Times New Roman,serif" font-size="14.00">motion_model(particles: np.ndarray, Q_model: np.ndarray, prev_particles: np.ndarray, template_particle: np.ndarray, search_area: np.ndarray, frame_size: Tuple[int, int], dt: float): np.ndarray</text>
</g>
<!-- PP2_Particle_Filter.particle_filter.Particle.ConstAccelParticle2DBbox&#45;&gt;PP2_Particle_Filter.particle_filter.ParticleTemplate.Particle -->
<g id="edge11" class="edge">
<title>PP2_Particle_Filter.particle_filter.Particle.ConstAccelParticle2DBbox&#45;&gt;PP2_Particle_Filter.particle_filter.ParticleTemplate.Particle</title>
<path fill="none" stroke="black" d="M2439.85,-152.04C2288.81,-174.12 2157.06,-193.62 2139.5,-197 2096.59,-205.26 2051.3,-215.07 2007.32,-225.18"/>
<polygon fill="none" stroke="black" points="2006.32,-221.82 1997.36,-227.48 2007.89,-228.64 2006.32,-221.82"/>
</g>
<!-- PP2_Particle_Filter.particle_filter.Particle.ConstAccelParticle2DFixBbox -->
<g id="node6" class="node">
<title>PP2_Particle_Filter.particle_filter.Particle.ConstAccelParticle2DFixBbox</title>
<polygon fill="none" stroke="black" points="3486,-15.5 3486,-144.5 4577,-144.5 4577,-15.5 3486,-15.5"/>
<text text-anchor="middle" x="4031.5" y="-129.3" font-family="Times New Roman,serif" font-size="14.00">ConstAccelParticle2DFixBbox</text>
<polyline fill="none" stroke="black" points="3486,-121.5 4577,-121.5 "/>
<text text-anchor="start" x="3494" y="-106.3" font-family="Times New Roman,serif" font-size="14.00">particle_dim : int</text>
<text text-anchor="start" x="3494" y="-91.3" font-family="Times New Roman,serif" font-size="14.00">rng</text>
<polyline fill="none" stroke="black" points="3486,-83.5 4577,-83.5 "/>
<text text-anchor="start" x="3494" y="-68.3" font-family="Times New Roman,serif" font-size="14.00">create_gaussian_particles(N: int, track_dim: int, init_pos: np.ndarray, std: np.ndarray): np.ndarray</text>
<text text-anchor="start" x="3494" y="-53.3" font-family="Times New Roman,serif" font-size="14.00">create_uniform_particles(N: int, track_dim: int, ranges: np.ndarray): np.ndarray</text>
<text text-anchor="start" x="3494" y="-38.3" font-family="Times New Roman,serif" font-size="14.00">measurement_model(coeff_sim: np.ndarray, particles: np.ndarray, template_particle: np.ndarray, R: np.ndarray): np.ndarray</text>
<text text-anchor="start" x="3494" y="-23.3" font-family="Times New Roman,serif" font-size="14.00">motion_model(particles: np.ndarray, Q_model: np.ndarray, prev_particles: np.ndarray, template_particle: np.ndarray, search_area: Tuple[int, int], frame_size: Tuple[int, int], dt: float): np.ndarray</text>
</g>
<!-- PP2_Particle_Filter.particle_filter.Particle.ConstAccelParticle2DFixBbox&#45;&gt;PP2_Particle_Filter.particle_filter.ParticleTemplate.Particle -->
<g id="edge12" class="edge">
<title>PP2_Particle_Filter.particle_filter.Particle.ConstAccelParticle2DFixBbox&#45;&gt;PP2_Particle_Filter.particle_filter.ParticleTemplate.Particle</title>
<path fill="none" stroke="black" d="M3622.92,-144.53C3573.68,-150.59 3524.02,-155.97 3476.5,-160 2884.17,-210.19 2728.84,-119.22 2139.5,-197 2089.7,-203.57 2037.01,-213.82 1986.95,-225.18"/>
<polygon fill="none" stroke="black" points="1985.94,-221.82 1976.98,-227.46 1987.51,-228.64 1985.94,-221.82"/>
</g>
<!-- PP2_Particle_Filter.utils.Descriptors.Descriptor -->
<g id="node7" class="node">
<title>PP2_Particle_Filter.utils.Descriptors.Descriptor</title>
<polygon fill="none" stroke="black" points="619,-446.5 619,-531.5 798,-531.5 798,-446.5 619,-446.5"/>
<text text-anchor="middle" x="708.5" y="-516.3" font-family="Times New Roman,serif" font-size="14.00">Descriptor</text>
<polyline fill="none" stroke="black" points="619,-508.5 798,-508.5 "/>
<polyline fill="none" stroke="black" points="619,-484.5 798,-484.5 "/>
<text text-anchor="start" x="627" y="-469.3" font-family="Times New Roman,serif" font-size="14.00">compute(images: np.ndarray)</text>
<text text-anchor="start" x="627" y="-454.3" font-family="Times New Roman,serif" font-size="14.00">update(args)</text>
</g>
<!-- PP2_Particle_Filter.utils.Descriptors.Descriptor&#45;&gt;PP2_Particle_Filter.tracking -->
<g id="edge3" class="edge">
<title>PP2_Particle_Filter.utils.Descriptors.Descriptor&#45;&gt;PP2_Particle_Filter.tracking</title>
<path fill="none" stroke="black" d="M751.43,-531.74C874.63,-648.69 1244.75,-980.47 1621.5,-1125 1686.55,-1149.95 1881.3,-1167.13 1986.42,-1174.87"/>
<polygon fill="black" stroke="black" points="1986.5,-1174.87 1992.77,-1171.32 1998.47,-1175.74 1992.19,-1179.29 1986.5,-1174.87"/>
</g>
<!-- PP2_Particle_Filter.utils.Descriptors.Descriptor&#45;&gt;PP2_Particle_Filter.particle_filter.ParticleFilter.ParticleFilter -->
<g id="edge8" class="edge">
<title>PP2_Particle_Filter.utils.Descriptors.Descriptor&#45;&gt;PP2_Particle_Filter.particle_filter.ParticleFilter.ParticleFilter</title>
<path fill="none" stroke="black" d="M798.09,-521.08C978.45,-583.66 1387.78,-725.67 1619.13,-805.93"/>
<polygon fill="none" stroke="black" points="1619.36,-806.01 1626.34,-804.2 1630.69,-809.94 1623.71,-811.76 1619.36,-806.01"/>
<text text-anchor="middle" x="998.5" y="-575.8" font-family="Times New Roman,serif" font-size="14.00" fill="red">descriptor</text>
</g>
<!-- PP2_Particle_Filter.utils.Descriptors.HOG -->
<g id="node8" class="node">
<title>PP2_Particle_Filter.utils.Descriptors.HOG</title>
<polygon fill="none" stroke="black" points="422,-197.5 422,-386.5 601,-386.5 601,-197.5 422,-197.5"/>
<text text-anchor="middle" x="511.5" y="-371.3" font-family="Times New Roman,serif" font-size="14.00">HOG</text>
<polyline fill="none" stroke="black" points="422,-363.5 601,-363.5 "/>
<text text-anchor="start" x="430" y="-348.3" font-family="Times New Roman,serif" font-size="14.00">blockSize : tuple</text>
<text text-anchor="start" x="430" y="-333.3" font-family="Times New Roman,serif" font-size="14.00">blockStride : tuple</text>
<text text-anchor="start" x="430" y="-318.3" font-family="Times New Roman,serif" font-size="14.00">cellSize : tuple</text>
<text text-anchor="start" x="430" y="-303.3" font-family="Times New Roman,serif" font-size="14.00">freezeSize : bool</text>
<text text-anchor="start" x="430" y="-288.3" font-family="Times New Roman,serif" font-size="14.00">hog</text>
<text text-anchor="start" x="430" y="-273.3" font-family="Times New Roman,serif" font-size="14.00">nbins : int</text>
<text text-anchor="start" x="430" y="-258.3" font-family="Times New Roman,serif" font-size="14.00">winSize : tuple</text>
<polyline fill="none" stroke="black" points="422,-250.5 601,-250.5 "/>
<text text-anchor="start" x="430" y="-235.3" font-family="Times New Roman,serif" font-size="14.00">compute(images: np.ndarray)</text>
<text text-anchor="start" x="430" y="-220.3" font-family="Times New Roman,serif" font-size="14.00">expectedF()</text>
<text text-anchor="start" x="430" y="-205.3" font-family="Times New Roman,serif" font-size="14.00">update(winSize)</text>
</g>
<!-- PP2_Particle_Filter.utils.Descriptors.HOG&#45;&gt;PP2_Particle_Filter.utils.Descriptors.Descriptor -->
<g id="edge14" class="edge">
<title>PP2_Particle_Filter.utils.Descriptors.HOG&#45;&gt;PP2_Particle_Filter.utils.Descriptors.Descriptor</title>
<path fill="none" stroke="black" d="M601.07,-381.66C620.99,-401.38 641.4,-421.58 659.01,-439.01"/>
<polygon fill="none" stroke="black" points="656.81,-441.75 666.37,-446.3 661.73,-436.78 656.81,-441.75"/>
</g>
<!-- PP2_Particle_Filter.utils.Descriptors.HOGCASCADE -->
<g id="node9" class="node">
<title>PP2_Particle_Filter.utils.Descriptors.HOGCASCADE</title>
<polygon fill="none" stroke="black" points="619,-197.5 619,-386.5 798,-386.5 798,-197.5 619,-197.5"/>
<text text-anchor="middle" x="708.5" y="-371.3" font-family="Times New Roman,serif" font-size="14.00">HOGCASCADE</text>
<polyline fill="none" stroke="black" points="619,-363.5 798,-363.5 "/>
<text text-anchor="start" x="627" y="-348.3" font-family="Times New Roman,serif" font-size="14.00">blockSize : tuple</text>
<text text-anchor="start" x="627" y="-333.3" font-family="Times New Roman,serif" font-size="14.00">blockStride : tuple</text>
<text text-anchor="start" x="627" y="-318.3" font-family="Times New Roman,serif" font-size="14.00">cellSize : tuple</text>
<text text-anchor="start" x="627" y="-303.3" font-family="Times New Roman,serif" font-size="14.00">freezeSize : bool</text>
<text text-anchor="start" x="627" y="-288.3" font-family="Times New Roman,serif" font-size="14.00">hog</text>
<text text-anchor="start" x="627" y="-273.3" font-family="Times New Roman,serif" font-size="14.00">nbcascade</text>
<text text-anchor="start" x="627" y="-258.3" font-family="Times New Roman,serif" font-size="14.00">nbins : int</text>
<text text-anchor="start" x="627" y="-243.3" font-family="Times New Roman,serif" font-size="14.00">winSize : tuple</text>
<polyline fill="none" stroke="black" points="619,-235.5 798,-235.5 "/>
<text text-anchor="start" x="627" y="-220.3" font-family="Times New Roman,serif" font-size="14.00">compute(images: np.ndarray)</text>
<text text-anchor="start" x="627" y="-205.3" font-family="Times New Roman,serif" font-size="14.00">update(winSize)</text>
</g>
<!-- PP2_Particle_Filter.utils.Descriptors.HOGCASCADE&#45;&gt;PP2_Particle_Filter.utils.Descriptors.Descriptor -->
<g id="edge15" class="edge">
<title>PP2_Particle_Filter.utils.Descriptors.HOGCASCADE&#45;&gt;PP2_Particle_Filter.utils.Descriptors.Descriptor</title>
<path fill="none" stroke="black" d="M708.5,-386.5C708.5,-403.5 708.5,-420.66 708.5,-435.9"/>
<polygon fill="none" stroke="black" points="705,-436.13 708.5,-446.13 712,-436.13 705,-436.13"/>
</g>
<!-- PP2_Particle_Filter.utils.Descriptors.HOGCASCADELBP -->
<g id="node10" class="node">
<title>PP2_Particle_Filter.utils.Descriptors.HOGCASCADELBP</title>
<polygon fill="none" stroke="black" points="816,-205 816,-379 995,-379 995,-205 816,-205"/>
<text text-anchor="middle" x="905.5" y="-363.8" font-family="Times New Roman,serif" font-size="14.00">HOGCASCADELBP</text>
<polyline fill="none" stroke="black" points="816,-356 995,-356 "/>
<text text-anchor="start" x="824" y="-340.8" font-family="Times New Roman,serif" font-size="14.00">blockSize : tuple</text>
<text text-anchor="start" x="824" y="-325.8" font-family="Times New Roman,serif" font-size="14.00">blockStride : tuple</text>
<text text-anchor="start" x="824" y="-310.8" font-family="Times New Roman,serif" font-size="14.00">cellSize : tuple</text>
<text text-anchor="start" x="824" y="-295.8" font-family="Times New Roman,serif" font-size="14.00">nbcascade</text>
<text text-anchor="start" x="824" y="-280.8" font-family="Times New Roman,serif" font-size="14.00">nbins : int</text>
<text text-anchor="start" x="824" y="-265.8" font-family="Times New Roman,serif" font-size="14.00">numPoints</text>
<text text-anchor="start" x="824" y="-250.8" font-family="Times New Roman,serif" font-size="14.00">radius</text>
<text text-anchor="start" x="824" y="-235.8" font-family="Times New Roman,serif" font-size="14.00">winSize : tuple</text>
<polyline fill="none" stroke="black" points="816,-228 995,-228 "/>
<text text-anchor="start" x="824" y="-212.8" font-family="Times New Roman,serif" font-size="14.00">compute(images: np.ndarray)</text>
</g>
<!-- PP2_Particle_Filter.utils.Descriptors.HOGCASCADELBP&#45;&gt;PP2_Particle_Filter.utils.Descriptors.Descriptor -->
<g id="edge16" class="edge">
<title>PP2_Particle_Filter.utils.Descriptors.HOGCASCADELBP&#45;&gt;PP2_Particle_Filter.utils.Descriptors.Descriptor</title>
<path fill="none" stroke="black" d="M818.52,-379.1C797.68,-399.72 776.15,-421.04 757.71,-439.29"/>
<polygon fill="none" stroke="black" points="755.19,-436.86 750.55,-446.38 760.12,-441.83 755.19,-436.86"/>
</g>
<!-- PP2_Particle_Filter.utils.Descriptors.HOGCOLOR -->
<g id="node11" class="node">
<title>PP2_Particle_Filter.utils.Descriptors.HOGCOLOR</title>
<polygon fill="none" stroke="black" points="0,-197.5 0,-386.5 179,-386.5 179,-197.5 0,-197.5"/>
<text text-anchor="middle" x="89.5" y="-371.3" font-family="Times New Roman,serif" font-size="14.00">HOGCOLOR</text>
<polyline fill="none" stroke="black" points="0,-363.5 179,-363.5 "/>
<text text-anchor="start" x="8" y="-348.3" font-family="Times New Roman,serif" font-size="14.00">blockSize : tuple</text>
<text text-anchor="start" x="8" y="-333.3" font-family="Times New Roman,serif" font-size="14.00">blockStride : tuple</text>
<text text-anchor="start" x="8" y="-318.3" font-family="Times New Roman,serif" font-size="14.00">cellSize : tuple</text>
<text text-anchor="start" x="8" y="-303.3" font-family="Times New Roman,serif" font-size="14.00">freezeSize : bool</text>
<text text-anchor="start" x="8" y="-288.3" font-family="Times New Roman,serif" font-size="14.00">hog</text>
<text text-anchor="start" x="8" y="-273.3" font-family="Times New Roman,serif" font-size="14.00">nbins : int</text>
<text text-anchor="start" x="8" y="-258.3" font-family="Times New Roman,serif" font-size="14.00">winSize : tuple</text>
<polyline fill="none" stroke="black" points="0,-250.5 179,-250.5 "/>
<text text-anchor="start" x="8" y="-235.3" font-family="Times New Roman,serif" font-size="14.00">compute(images: np.ndarray)</text>
<text text-anchor="start" x="8" y="-220.3" font-family="Times New Roman,serif" font-size="14.00">expectedF()</text>
<text text-anchor="start" x="8" y="-205.3" font-family="Times New Roman,serif" font-size="14.00">update(winSize)</text>
</g>
<!-- PP2_Particle_Filter.utils.Descriptors.HOGCOLOR&#45;&gt;PP2_Particle_Filter.utils.Descriptors.Descriptor -->
<g id="edge17" class="edge">
<title>PP2_Particle_Filter.utils.Descriptors.HOGCOLOR&#45;&gt;PP2_Particle_Filter.utils.Descriptors.Descriptor</title>
<path fill="none" stroke="black" d="M179.12,-381.74C182.21,-383.61 185.34,-385.37 188.5,-387 323.28,-456.43 500.11,-478.32 608.94,-485.11"/>
<polygon fill="none" stroke="black" points="608.74,-488.6 618.93,-485.7 609.16,-481.62 608.74,-488.6"/>
</g>
<!-- PP2_Particle_Filter.utils.Descriptors.LBP -->
<g id="node12" class="node">
<title>PP2_Particle_Filter.utils.Descriptors.LBP</title>
<polygon fill="none" stroke="black" points="197.5,-250 197.5,-334 403.5,-334 403.5,-250 197.5,-250"/>
<text text-anchor="middle" x="300.5" y="-318.8" font-family="Times New Roman,serif" font-size="14.00">LBP</text>
<polyline fill="none" stroke="black" points="197.5,-311 403.5,-311 "/>
<text text-anchor="start" x="205.5" y="-295.8" font-family="Times New Roman,serif" font-size="14.00">numPoints</text>
<text text-anchor="start" x="205.5" y="-280.8" font-family="Times New Roman,serif" font-size="14.00">radius</text>
<polyline fill="none" stroke="black" points="197.5,-273 403.5,-273 "/>
<text text-anchor="start" x="205.5" y="-257.8" font-family="Times New Roman,serif" font-size="14.00">compute(images: np.ndarray, eps)</text>
</g>
<!-- PP2_Particle_Filter.utils.Descriptors.LBP&#45;&gt;PP2_Particle_Filter.utils.Descriptors.Descriptor -->
<g id="edge18" class="edge">
<title>PP2_Particle_Filter.utils.Descriptors.LBP&#45;&gt;PP2_Particle_Filter.utils.Descriptors.Descriptor</title>
<path fill="none" stroke="black" d="M341.86,-334.08C361.89,-352.23 387.07,-372.66 412.5,-387 474.1,-421.74 549.64,-447.28 608.99,-463.98"/>
<polygon fill="none" stroke="black" points="608.18,-467.39 618.75,-466.69 610.05,-460.64 608.18,-467.39"/>
</g>
<!-- PP2_Particle_Filter.detect_init.Model -->
<g id="node13" class="node">
<title>PP2_Particle_Filter.detect_init.Model</title>
<polygon fill="none" stroke="black" points="1976.5,-778 1976.5,-952 2134.5,-952 2134.5,-778 1976.5,-778"/>
<text text-anchor="middle" x="2055.5" y="-936.8" font-family="Times New Roman,serif" font-size="14.00">Model</text>
<polyline fill="none" stroke="black" points="1976.5,-929 2134.5,-929 "/>
<text text-anchor="start" x="1984.5" y="-913.8" font-family="Times New Roman,serif" font-size="14.00">conf_thres : float</text>
<text text-anchor="start" x="1984.5" y="-898.8" font-family="Times New Roman,serif" font-size="14.00">device</text>
<text text-anchor="start" x="1984.5" y="-883.8" font-family="Times New Roman,serif" font-size="14.00">half</text>
<text text-anchor="start" x="1984.5" y="-868.8" font-family="Times New Roman,serif" font-size="14.00">img_size</text>
<text text-anchor="start" x="1984.5" y="-853.8" font-family="Times New Roman,serif" font-size="14.00">iou_thres : float</text>
<text text-anchor="start" x="1984.5" y="-838.8" font-family="Times New Roman,serif" font-size="14.00">model</text>
<text text-anchor="start" x="1984.5" y="-823.8" font-family="Times New Roman,serif" font-size="14.00">stride : int</text>
<text text-anchor="start" x="1984.5" y="-808.8" font-family="Times New Roman,serif" font-size="14.00">weights : str</text>
<polyline fill="none" stroke="black" points="1976.5,-801 2134.5,-801 "/>
<text text-anchor="start" x="1984.5" y="-785.8" font-family="Times New Roman,serif" font-size="14.00">detect(image: np.ndarray)</text>
</g>
<!-- PP2_Particle_Filter.detect_init.Model&#45;&gt;PP2_Particle_Filter.tracking -->
<g id="edge2" class="edge">
<title>PP2_Particle_Filter.detect_init.Model&#45;&gt;PP2_Particle_Filter.tracking</title>
<path fill="none" stroke="black" d="M2055.5,-952.08C2055.5,-1018.1 2055.5,-1105.26 2055.5,-1150.09"/>
<polygon fill="black" stroke="black" points="2055.5,-1150.32 2059.5,-1156.32 2055.5,-1162.32 2051.5,-1156.32 2055.5,-1150.32"/>
</g>
<!-- PP2_Particle_Filter.utils.Slicer.Slicer -->
<g id="node14" class="node">
<title>PP2_Particle_Filter.utils.Slicer.Slicer</title>
<polygon fill="none" stroke="black" points="2162.5,-424.5 2162.5,-553.5 2432.5,-553.5 2432.5,-424.5 2162.5,-424.5"/>
<text text-anchor="middle" x="2297.5" y="-538.3" font-family="Times New Roman,serif" font-size="14.00">Slicer</text>
<polyline fill="none" stroke="black" points="2162.5,-530.5 2432.5,-530.5 "/>
<text text-anchor="start" x="2170.5" y="-515.3" font-family="Times New Roman,serif" font-size="14.00">freezeSize : bool</text>
<text text-anchor="start" x="2170.5" y="-500.3" font-family="Times New Roman,serif" font-size="14.00">image : ndarray</text>
<text text-anchor="start" x="2170.5" y="-485.3" font-family="Times New Roman,serif" font-size="14.00">size : Tuple[int, int]</text>
<polyline fill="none" stroke="black" points="2162.5,-477.5 2432.5,-477.5 "/>
<text text-anchor="start" x="2170.5" y="-462.3" font-family="Times New Roman,serif" font-size="14.00">image_slice(particles: np.ndarray): np.ndarray</text>
<text text-anchor="start" x="2170.5" y="-447.3" font-family="Times New Roman,serif" font-size="14.00">updateImage(newImage: np.ndarray): None</text>
<text text-anchor="start" x="2170.5" y="-432.3" font-family="Times New Roman,serif" font-size="14.00">updateSize(newSize: Tuple[int, int]): None</text>
</g>
<!-- PP2_Particle_Filter.utils.Slicer.Slicer&#45;&gt;PP2_Particle_Filter.tracking -->
<g id="edge4" class="edge">
<title>PP2_Particle_Filter.utils.Slicer.Slicer&#45;&gt;PP2_Particle_Filter.tracking</title>
<path fill="none" stroke="black" d="M2197.31,-553.75C2192.45,-559.46 2188.1,-565.54 2184.5,-572 2064.5,-787.27 2271.3,-914.27 2143.5,-1125 2135.71,-1137.84 2123.62,-1148.11 2110.88,-1156.12"/>
<polygon fill="black" stroke="black" points="2110.5,-1156.33 2107.29,-1162.79 2100.1,-1162.31 2103.31,-1155.85 2110.5,-1156.33"/>
</g>
<!-- PP2_Particle_Filter.utils.Slicer.Slicer&#45;&gt;PP2_Particle_Filter.particle_filter.ParticleFilter.ParticleFilter -->
<g id="edge9" class="edge">
<title>PP2_Particle_Filter.utils.Slicer.Slicer&#45;&gt;PP2_Particle_Filter.particle_filter.ParticleFilter.ParticleFilter</title>
<path fill="none" stroke="black" d="M2162.15,-516.77C2098.52,-534.21 2024.33,-561.97 1967.5,-605 1961.9,-609.24 1956.4,-613.71 1951.02,-618.37"/>
<polygon fill="none" stroke="black" points="1951,-618.38 1949.2,-625.36 1942.06,-626.38 1943.86,-619.4 1951,-618.38"/>
<text text-anchor="middle" x="2029.5" y="-575.8" font-family="Times New Roman,serif" font-size="14.00" fill="red">slicer</text>
</g>
<!-- PP2_Particle_Filter.utils.Slicer.Crop -->
<g id="node15" class="node">
<title>PP2_Particle_Filter.utils.Slicer.Crop</title>
<polygon fill="none" stroke="black" points="2148,-257 2148,-327 2573,-327 2573,-257 2148,-257"/>
<text text-anchor="middle" x="2360.5" y="-311.8" font-family="Times New Roman,serif" font-size="14.00">Crop</text>
<polyline fill="none" stroke="black" points="2148,-304 2573,-304 "/>
<polyline fill="none" stroke="black" points="2148,-280 2573,-280 "/>
<text text-anchor="start" x="2156" y="-264.8" font-family="Times New Roman,serif" font-size="14.00">image_slice(image: np.ndarray, template_particle: np.ndarray): np.ndarray</text>
</g>
<!-- PP2_Particle_Filter.utils.Slicer.Crop&#45;&gt;PP2_Particle_Filter.utils.Slicer.Slicer -->
<g id="edge19" class="edge">
<title>PP2_Particle_Filter.utils.Slicer.Crop&#45;&gt;PP2_Particle_Filter.utils.Slicer.Slicer</title>
<path fill="none" stroke="black" d="M2349.38,-327.41C2341.57,-351.58 2330.83,-384.82 2321.15,-414.79"/>
<polygon fill="none" stroke="black" points="2317.8,-413.8 2318.05,-424.39 2324.46,-415.95 2317.8,-413.8"/>
</g>
<!-- PP2_Particle_Filter.utils.Slicer.Resize -->
<g id="node16" class="node">
<title>PP2_Particle_Filter.utils.Slicer.Resize</title>
<polygon fill="none" stroke="black" points="2591.5,-257 2591.5,-327 2861.5,-327 2861.5,-257 2591.5,-257"/>
<text text-anchor="middle" x="2726.5" y="-311.8" font-family="Times New Roman,serif" font-size="14.00">Resize</text>
<polyline fill="none" stroke="black" points="2591.5,-304 2861.5,-304 "/>
<polyline fill="none" stroke="black" points="2591.5,-280 2861.5,-280 "/>
<text text-anchor="start" x="2599.5" y="-264.8" font-family="Times New Roman,serif" font-size="14.00">image_slice(particles: np.ndarray): np.ndarray</text>
</g>
<!-- PP2_Particle_Filter.utils.Slicer.Resize&#45;&gt;PP2_Particle_Filter.utils.Slicer.Slicer -->
<g id="edge20" class="edge">
<title>PP2_Particle_Filter.utils.Slicer.Resize&#45;&gt;PP2_Particle_Filter.utils.Slicer.Slicer</title>
<path fill="none" stroke="black" d="M2680.51,-327.06C2653.03,-346.37 2616.89,-369.99 2582.5,-387 2538.24,-408.9 2488.04,-428.34 2442.22,-444.17"/>
<polygon fill="none" stroke="black" points="2440.84,-440.94 2432.52,-447.49 2443.11,-447.57 2440.84,-440.94"/>
</g>
<!-- PP2_Particle_Filter.utils.Similarity.Bhattacharyya_log -->
<g id="node17" class="node">
<title>PP2_Particle_Filter.utils.Similarity.Bhattacharyya_log</title>
<polygon fill="none" stroke="black" points="2880,-257 2880,-327 3323,-327 3323,-257 2880,-257"/>
<text text-anchor="middle" x="3101.5" y="-311.8" font-family="Times New Roman,serif" font-size="14.00">Bhattacharyya_log</text>
<polyline fill="none" stroke="black" points="2880,-304 3323,-304 "/>
<polyline fill="none" stroke="black" points="2880,-280 3323,-280 "/>
<text text-anchor="start" x="2888" y="-264.8" font-family="Times New Roman,serif" font-size="14.00">computeSimilarity(descriptors: np.ndarray, template: np.ndarray): np.ndarray</text>
</g>
<!-- PP2_Particle_Filter.utils.Similarity.Similarity -->
<g id="node26" class="node">
<title>PP2_Particle_Filter.utils.Similarity.Similarity</title>
<polygon fill="none" stroke="black" points="3110,-454 3110,-524 3553,-524 3553,-454 3110,-454"/>
<text text-anchor="middle" x="3331.5" y="-508.8" font-family="Times New Roman,serif" font-size="14.00">Similarity</text>
<polyline fill="none" stroke="black" points="3110,-501 3553,-501 "/>
<polyline fill="none" stroke="black" points="3110,-477 3553,-477 "/>
<text text-anchor="start" x="3118" y="-461.8" font-family="Times New Roman,serif" font-size="14.00">computeSimilarity(descriptors: np.ndarray, template: np.ndarray): np.ndarray</text>
</g>
<!-- PP2_Particle_Filter.utils.Similarity.Bhattacharyya_log&#45;&gt;PP2_Particle_Filter.utils.Similarity.Similarity -->
<g id="edge25" class="edge">
<title>PP2_Particle_Filter.utils.Similarity.Bhattacharyya_log&#45;&gt;PP2_Particle_Filter.utils.Similarity.Similarity</title>
<path fill="none" stroke="black" d="M3141.83,-327.19C3181.28,-360.64 3241.4,-411.61 3283.35,-447.17"/>
<polygon fill="none" stroke="black" points="3281.33,-450.05 3291.22,-453.85 3285.86,-444.71 3281.33,-450.05"/>
</g>
<!-- PP2_Particle_Filter.utils.Similarity.Bhattacharyya_sqrt -->
<g id="node18" class="node">
<title>PP2_Particle_Filter.utils.Similarity.Bhattacharyya_sqrt</title>
<polygon fill="none" stroke="black" points="3341,-257 3341,-327 3784,-327 3784,-257 3341,-257"/>
<text text-anchor="middle" x="3562.5" y="-311.8" font-family="Times New Roman,serif" font-size="14.00">Bhattacharyya_sqrt</text>
<polyline fill="none" stroke="black" points="3341,-304 3784,-304 "/>
<polyline fill="none" stroke="black" points="3341,-280 3784,-280 "/>
<text text-anchor="start" x="3349" y="-264.8" font-family="Times New Roman,serif" font-size="14.00">computeSimilarity(descriptors: np.ndarray, template: np.ndarray): np.ndarray</text>
</g>
<!-- PP2_Particle_Filter.utils.Similarity.Bhattacharyya_sqrt&#45;&gt;PP2_Particle_Filter.utils.Similarity.Similarity -->
<g id="edge26" class="edge">
<title>PP2_Particle_Filter.utils.Similarity.Bhattacharyya_sqrt&#45;&gt;PP2_Particle_Filter.utils.Similarity.Similarity</title>
<path fill="none" stroke="black" d="M3522,-327.19C3482.29,-360.71 3421.74,-411.82 3379.6,-447.4"/>
<polygon fill="none" stroke="black" points="3377.34,-444.72 3371.95,-453.85 3381.85,-450.07 3377.34,-444.72"/>
</g>
<!-- PP2_Particle_Filter.utils.Similarity.Cosine_Similarity -->
<g id="node19" class="node">
<title>PP2_Particle_Filter.utils.Similarity.Cosine_Similarity</title>
<polygon fill="none" stroke="black" points="3802,-257 3802,-327 4245,-327 4245,-257 3802,-257"/>
<text text-anchor="middle" x="4023.5" y="-311.8" font-family="Times New Roman,serif" font-size="14.00">Cosine_Similarity</text>
<polyline fill="none" stroke="black" points="3802,-304 4245,-304 "/>
<polyline fill="none" stroke="black" points="3802,-280 4245,-280 "/>
<text text-anchor="start" x="3810" y="-264.8" font-family="Times New Roman,serif" font-size="14.00">computeSimilarity(descriptors: np.ndarray, template: np.ndarray): np.ndarray</text>
</g>
<!-- PP2_Particle_Filter.utils.Similarity.Cosine_Similarity&#45;&gt;PP2_Particle_Filter.utils.Similarity.Similarity -->
<g id="edge27" class="edge">
<title>PP2_Particle_Filter.utils.Similarity.Cosine_Similarity&#45;&gt;PP2_Particle_Filter.utils.Similarity.Similarity</title>
<path fill="none" stroke="black" d="M3949.59,-327.02C3905.07,-346.55 3846.84,-370.41 3793.5,-387 3709.22,-413.22 3614.25,-435.23 3532.43,-451.94"/>
<polygon fill="none" stroke="black" points="3531.63,-448.53 3522.52,-453.95 3533.02,-455.39 3531.63,-448.53"/>
</g>
<!-- PP2_Particle_Filter.utils.Similarity.Kullback_Leibler_Divergence -->
<g id="node20" class="node">
<title>PP2_Particle_Filter.utils.Similarity.Kullback_Leibler_Divergence</title>
<polygon fill="none" stroke="black" points="4263,-257 4263,-327 4706,-327 4706,-257 4263,-257"/>
<text text-anchor="middle" x="4484.5" y="-311.8" font-family="Times New Roman,serif" font-size="14.00">Kullback_Leibler_Divergence</text>
<polyline fill="none" stroke="black" points="4263,-304 4706,-304 "/>
<polyline fill="none" stroke="black" points="4263,-280 4706,-280 "/>
<text text-anchor="start" x="4271" y="-264.8" font-family="Times New Roman,serif" font-size="14.00">computeSimilarity(descriptors: np.ndarray, template: np.ndarray): np.ndarray</text>
</g>
<!-- PP2_Particle_Filter.utils.Similarity.Kullback_Leibler_Divergence&#45;&gt;PP2_Particle_Filter.utils.Similarity.Similarity -->
<g id="edge28" class="edge">
<title>PP2_Particle_Filter.utils.Similarity.Kullback_Leibler_Divergence&#45;&gt;PP2_Particle_Filter.utils.Similarity.Similarity</title>
<path fill="none" stroke="black" d="M4415.75,-327.01C4370.92,-347.7 4310.53,-372.78 4254.5,-387 4023.67,-445.57 3751.88,-470.17 3563.27,-480.51"/>
<polygon fill="none" stroke="black" points="3563.03,-477.02 3553.23,-481.05 3563.4,-484.01 3563.03,-477.02"/>
</g>
<!-- PP2_Particle_Filter.particle_filter.ResampleMethods.Resampling -->
<g id="node21" class="node">
<title>PP2_Particle_Filter.particle_filter.ResampleMethods.Resampling</title>
<polygon fill="none" stroke="black" points="1013,-257 1013,-327 1264,-327 1264,-257 1013,-257"/>
<text text-anchor="middle" x="1138.5" y="-311.8" font-family="Times New Roman,serif" font-size="14.00">Resampling</text>
<polyline fill="none" stroke="black" points="1013,-304 1264,-304 "/>
<polyline fill="none" stroke="black" points="1013,-280 1264,-280 "/>
<text text-anchor="start" x="1021" y="-264.8" font-family="Times New Roman,serif" font-size="14.00">resample(weights: np.ndarray): np.ndarray</text>
</g>
<!-- PP2_Particle_Filter.particle_filter.ResampleMethods.Resampling&#45;&gt;PP2_Particle_Filter.particle_filter.ParticleFilter.ParticleFilter -->
<g id="edge6" class="edge">
<title>PP2_Particle_Filter.particle_filter.ResampleMethods.Resampling&#45;&gt;PP2_Particle_Filter.particle_filter.ParticleFilter.ParticleFilter</title>
<path fill="none" stroke="black" d="M1177.09,-327.01C1262.56,-402.32 1472.05,-586.91 1621.51,-718.61"/>
<polygon fill="black" stroke="black" points="1621.81,-718.88 1628.96,-719.85 1630.81,-726.81 1623.67,-725.85 1621.81,-718.88"/>
<text text-anchor="middle" x="1484.5" y="-485.3" font-family="Times New Roman,serif" font-size="14.00" fill="red">resample_method</text>
</g>
<!-- PP2_Particle_Filter.particle_filter.ResampleMethods.Systematic -->
<g id="node22" class="node">
<title>PP2_Particle_Filter.particle_filter.ResampleMethods.Systematic</title>
<polygon fill="none" stroke="black" points="744,-45 744,-115 995,-115 995,-45 744,-45"/>
<text text-anchor="middle" x="869.5" y="-99.8" font-family="Times New Roman,serif" font-size="14.00">Systematic</text>
<polyline fill="none" stroke="black" points="744,-92 995,-92 "/>
<polyline fill="none" stroke="black" points="744,-68 995,-68 "/>
<text text-anchor="start" x="752" y="-52.8" font-family="Times New Roman,serif" font-size="14.00">resample(weights: np.ndarray): np.ndarray</text>
</g>
<!-- PP2_Particle_Filter.particle_filter.ResampleMethods.Systematic&#45;&gt;PP2_Particle_Filter.particle_filter.ResampleMethods.Resampling -->
<g id="edge24" class="edge">
<title>PP2_Particle_Filter.particle_filter.ResampleMethods.Systematic&#45;&gt;PP2_Particle_Filter.particle_filter.ResampleMethods.Resampling</title>
<path fill="none" stroke="black" d="M913.32,-115.21C960.7,-152.2 1036.19,-211.13 1086.54,-250.43"/>
<polygon fill="none" stroke="black" points="1084.66,-253.41 1094.7,-256.81 1088.97,-247.89 1084.66,-253.41"/>
</g>
<!-- PP2_Particle_Filter.particle_filter.ResampleMethods.Residual -->
<g id="node23" class="node">
<title>PP2_Particle_Filter.particle_filter.ResampleMethods.Residual</title>
<polygon fill="none" stroke="black" points="1013,-45 1013,-115 1264,-115 1264,-45 1013,-45"/>
<text text-anchor="middle" x="1138.5" y="-99.8" font-family="Times New Roman,serif" font-size="14.00">Residual</text>
<polyline fill="none" stroke="black" points="1013,-92 1264,-92 "/>
<polyline fill="none" stroke="black" points="1013,-68 1264,-68 "/>
<text text-anchor="start" x="1021" y="-52.8" font-family="Times New Roman,serif" font-size="14.00">resample(weights: np.ndarray): np.ndarray</text>
</g>
<!-- PP2_Particle_Filter.particle_filter.ResampleMethods.Residual&#45;&gt;PP2_Particle_Filter.particle_filter.ResampleMethods.Resampling -->
<g id="edge22" class="edge">
<title>PP2_Particle_Filter.particle_filter.ResampleMethods.Residual&#45;&gt;PP2_Particle_Filter.particle_filter.ResampleMethods.Resampling</title>
<path fill="none" stroke="black" d="M1138.5,-115.21C1138.5,-151.05 1138.5,-207.51 1138.5,-246.73"/>
<polygon fill="none" stroke="black" points="1135,-246.81 1138.5,-256.81 1142,-246.81 1135,-246.81"/>
</g>
<!-- PP2_Particle_Filter.particle_filter.ResampleMethods.Stratified -->
<g id="node24" class="node">
<title>PP2_Particle_Filter.particle_filter.ResampleMethods.Stratified</title>
<polygon fill="none" stroke="black" points="206,-45 206,-115 457,-115 457,-45 206,-45"/>
<text text-anchor="middle" x="331.5" y="-99.8" font-family="Times New Roman,serif" font-size="14.00">Stratified</text>
<polyline fill="none" stroke="black" points="206,-92 457,-92 "/>
<polyline fill="none" stroke="black" points="206,-68 457,-68 "/>
<text text-anchor="start" x="214" y="-52.8" font-family="Times New Roman,serif" font-size="14.00">resample(weights: np.ndarray): np.ndarray</text>
</g>
<!-- PP2_Particle_Filter.particle_filter.ResampleMethods.Stratified&#45;&gt;PP2_Particle_Filter.particle_filter.ResampleMethods.Resampling -->
<g id="edge23" class="edge">
<title>PP2_Particle_Filter.particle_filter.ResampleMethods.Stratified&#45;&gt;PP2_Particle_Filter.particle_filter.ResampleMethods.Resampling</title>
<path fill="none" stroke="black" d="M377.04,-115.05C401.86,-131.69 433.9,-150.2 465.5,-160 579.96,-195.49 890.46,-157.21 1003.5,-197 1036.56,-208.64 1068.95,-230.72 1093.71,-250.56"/>
<polygon fill="none" stroke="black" points="1091.51,-253.28 1101.47,-256.9 1095.94,-247.86 1091.51,-253.28"/>
</g>
<!-- PP2_Particle_Filter.particle_filter.ResampleMethods.Multinomial -->
<g id="node25" class="node">
<title>PP2_Particle_Filter.particle_filter.ResampleMethods.Multinomial</title>
<polygon fill="none" stroke="black" points="475,-45 475,-115 726,-115 726,-45 475,-45"/>
<text text-anchor="middle" x="600.5" y="-99.8" font-family="Times New Roman,serif" font-size="14.00">Multinomial</text>
<polyline fill="none" stroke="black" points="475,-92 726,-92 "/>
<polyline fill="none" stroke="black" points="475,-68 726,-68 "/>
<text text-anchor="start" x="483" y="-52.8" font-family="Times New Roman,serif" font-size="14.00">resample(weights: np.ndarray): np.ndarray</text>
</g>
<!-- PP2_Particle_Filter.particle_filter.ResampleMethods.Multinomial&#45;&gt;PP2_Particle_Filter.particle_filter.ResampleMethods.Resampling -->
<g id="edge21" class="edge">
<title>PP2_Particle_Filter.particle_filter.ResampleMethods.Multinomial&#45;&gt;PP2_Particle_Filter.particle_filter.ResampleMethods.Resampling</title>
<path fill="none" stroke="black" d="M647.86,-115.19C672.53,-131.33 703.89,-149.35 734.5,-160 848.48,-199.64 891.09,-153.08 1003.5,-197 1035.53,-209.51 1067.29,-231.05 1091.95,-250.35"/>
<polygon fill="none" stroke="black" points="1090.03,-253.29 1100.03,-256.79 1094.39,-247.82 1090.03,-253.29"/>
</g>
<!-- PP2_Particle_Filter.utils.Similarity.Similarity&#45;&gt;PP2_Particle_Filter.tracking -->
<g id="edge5" class="edge">
<title>PP2_Particle_Filter.utils.Similarity.Similarity&#45;&gt;PP2_Particle_Filter.tracking</title>
<path fill="none" stroke="black" d="M3271.21,-524.01C3100.63,-620.07 2599.66,-900.95 2178.5,-1125 2162.18,-1133.68 2158.28,-1136.24 2141.5,-1144 2131.38,-1148.68 2120.46,-1153.41 2109.92,-1157.84"/>
<polygon fill="black" stroke="black" points="2109.76,-1157.9 2105.75,-1163.9 2098.67,-1162.5 2102.68,-1156.5 2109.76,-1157.9"/>
</g>
<!-- PP2_Particle_Filter.utils.Similarity.Similarity&#45;&gt;PP2_Particle_Filter.particle_filter.ParticleFilter.ParticleFilter -->
<g id="edge10" class="edge">
<title>PP2_Particle_Filter.utils.Similarity.Similarity&#45;&gt;PP2_Particle_Filter.particle_filter.ParticleFilter.ParticleFilter</title>
<path fill="none" stroke="black" d="M3109.64,-506.29C2729.51,-534.54 1991.92,-590.94 1967.5,-605 1962.28,-608.01 1957.17,-611.23 1952.18,-614.65"/>
<polygon fill="none" stroke="black" points="1951.82,-614.91 1949.3,-621.67 1942.09,-621.94 1944.61,-615.18 1951.82,-614.91"/>
<text text-anchor="middle" x="2267.5" y="-575.8" font-family="Times New Roman,serif" font-size="14.00" fill="red">similarity</text>
</g>
</g>
</svg>
