<?xml version="1.0" encoding="UTF-8" standalone="no"?>
<!DOCTYPE svg PUBLIC "-//W3C//DTD SVG 1.1//EN"
 "http://www.w3.org/Graphics/SVG/1.1/DTD/svg11.dtd">
<!-- Generated by graphviz version 3.0.0 (20220226.1711)
 -->
<!-- Title: classes Pages: 1 -->
<svg width="5047pt" height="1010pt"
 viewBox="0.00 0.00 5047.00 1010.00" xmlns="http://www.w3.org/2000/svg" xmlns:xlink="http://www.w3.org/1999/xlink">
<g id="graph0" class="graph" transform="scale(1 1) rotate(0) translate(4 1006)">
<title>classes</title>
<polygon fill="white" stroke="transparent" points="-4,4 -4,-1006 5043,-1006 5043,4 -4,4"/>
<!-- PP2_Particle_Filter.tracking -->
<g id="node1" class="node">
<title>PP2_Particle_Filter.tracking</title>
<polygon fill="none" stroke="black" points="2467,-965.5 2467,-1001.5 2581,-1001.5 2581,-965.5 2467,-965.5"/>
<text text-anchor="middle" x="2524" y="-979.8" font-family="Times New Roman,serif" font-size="14.00">Tracking Schema</text>
</g>
<!-- PP2_Particle_Filter.particle_filter.Particle.ConstAccelParticle2DBbox -->
<g id="node2" class="node">
<title>PP2_Particle_Filter.particle_filter.Particle.ConstAccelParticle2DBbox</title>
<polygon fill="none" stroke="black" points="2950,-23 2950,-167 4026,-167 4026,-23 2950,-23"/>
<text text-anchor="middle" x="3488" y="-151.8" font-family="Times New Roman,serif" font-size="14.00">ConstAccelParticle2DBbox</text>
<polyline fill="none" stroke="black" points="2950,-144 4026,-144 "/>
<text text-anchor="start" x="2958" y="-128.8" font-family="Times New Roman,serif" font-size="14.00">particle_dim : int</text>
<text text-anchor="start" x="2958" y="-113.8" font-family="Times New Roman,serif" font-size="14.00">rng</text>
<polyline fill="none" stroke="black" points="2950,-106 4026,-106 "/>
<text text-anchor="start" x="2958" y="-90.8" font-family="Times New Roman,serif" font-size="14.00">compute_gamma(N: int, track_dim: int): np.ndarray</text>
<text text-anchor="start" x="2958" y="-75.8" font-family="Times New Roman,serif" font-size="14.00">create_gaussian_particles(N: int, track_dim: int, init_pos: np.ndarray, std: np.ndarray): np.ndarray</text>
<text text-anchor="start" x="2958" y="-60.8" font-family="Times New Roman,serif" font-size="14.00">create_uniform_particles(N: int, track_dim: int, ranges: np.ndarray): np.ndarray</text>
<text text-anchor="start" x="2958" y="-45.8" font-family="Times New Roman,serif" font-size="14.00">measurement_model(coeff_sim: np.ndarray, particles: np.ndarray, template_particle: np.ndarray, R: np.ndarray): np.ndarray</text>
<text text-anchor="start" x="2958" y="-30.8" font-family="Times New Roman,serif" font-size="14.00">motion_model(particles: np.ndarray, Q_model: np.ndarray, prev_particles: np.ndarray, template_particle: np.ndarray, search_area: np.ndarray, frame_size: Tuple[int, int], dt: float): np.ndarray</text>
</g>
<!-- PP2_Particle_Filter.particle_filter.ParticleTemplate.Particle -->
<g id="node12" class="node">
<title>PP2_Particle_Filter.particle_filter.ParticleTemplate.Particle</title>
<polygon fill="none" stroke="black" points="2002.5,-227.5 2002.5,-356.5 2769.5,-356.5 2769.5,-227.5 2002.5,-227.5"/>
<text text-anchor="middle" x="2386" y="-341.3" font-family="Times New Roman,serif" font-size="14.00">Particle</text>
<polyline fill="none" stroke="black" points="2002.5,-333.5 2769.5,-333.5 "/>
<text text-anchor="start" x="2010.5" y="-318.3" font-family="Times New Roman,serif" font-size="14.00">particle_dim : int</text>
<text text-anchor="start" x="2010.5" y="-303.3" font-family="Times New Roman,serif" font-size="14.00">rng</text>
<polyline fill="none" stroke="black" points="2002.5,-295.5 2769.5,-295.5 "/>
<text text-anchor="start" x="2010.5" y="-280.3" font-family="Times New Roman,serif" font-size="14.00">create_gaussian_particles(N: int, track_dim: int, init_pos: np.ndarray, std: np.ndarray): np.ndarray</text>
<text text-anchor="start" x="2010.5" y="-265.3" font-family="Times New Roman,serif" font-size="14.00">create_uniform_particles(N: int, track_dim: int, ranges: np.ndarray): np.ndarray</text>
<text text-anchor="start" x="2010.5" y="-250.3" font-family="Times New Roman,serif" font-size="14.00">measurement_model(coeff_sim: np.ndarray, R: np.ndarray): np.ndarray</text>
<text text-anchor="start" x="2010.5" y="-235.3" font-family="Times New Roman,serif" font-size="14.00">motion_model(particles: np.ndarray, Q_model: np.ndarray, prev_particles: np.ndarray, frame_size: Tuple[int, int], dt: float): np.ndarray</text>
</g>
<!-- PP2_Particle_Filter.particle_filter.Particle.ConstAccelParticle2DBbox&#45;&gt;PP2_Particle_Filter.particle_filter.ParticleTemplate.Particle -->
<g id="edge8" class="edge">
<title>PP2_Particle_Filter.particle_filter.Particle.ConstAccelParticle2DBbox&#45;&gt;PP2_Particle_Filter.particle_filter.ParticleTemplate.Particle</title>
<path fill="none" stroke="black" d="M3086.65,-167.02C2978.21,-186.21 2861.4,-206.88 2754.84,-225.73"/>
<polygon fill="none" stroke="black" points="2754.12,-222.31 2744.89,-227.49 2755.34,-229.2 2754.12,-222.31"/>
</g>
<!-- PP2_Particle_Filter.particle_filter.Particle.ConstAccelParticle2DFixBbox -->
<g id="node3" class="node">
<title>PP2_Particle_Filter.particle_filter.Particle.ConstAccelParticle2DFixBbox</title>
<polygon fill="none" stroke="black" points="731.5,-30.5 731.5,-159.5 1822.5,-159.5 1822.5,-30.5 731.5,-30.5"/>
<text text-anchor="middle" x="1277" y="-144.3" font-family="Times New Roman,serif" font-size="14.00">ConstAccelParticle2DFixBbox</text>
<polyline fill="none" stroke="black" points="731.5,-136.5 1822.5,-136.5 "/>
<text text-anchor="start" x="739.5" y="-121.3" font-family="Times New Roman,serif" font-size="14.00">particle_dim : int</text>
<text text-anchor="start" x="739.5" y="-106.3" font-family="Times New Roman,serif" font-size="14.00">rng</text>
<polyline fill="none" stroke="black" points="731.5,-98.5 1822.5,-98.5 "/>
<text text-anchor="start" x="739.5" y="-83.3" font-family="Times New Roman,serif" font-size="14.00">create_gaussian_particles(N: int, track_dim: int, init_pos: np.ndarray, std: np.ndarray): np.ndarray</text>
<text text-anchor="start" x="739.5" y="-68.3" font-family="Times New Roman,serif" font-size="14.00">create_uniform_particles(N: int, track_dim: int, ranges: np.ndarray): np.ndarray</text>
<text text-anchor="start" x="739.5" y="-53.3" font-family="Times New Roman,serif" font-size="14.00">measurement_model(coeff_sim: np.ndarray, particles: np.ndarray, template_particle: np.ndarray, R: np.ndarray): np.ndarray</text>
<text text-anchor="start" x="739.5" y="-38.3" font-family="Times New Roman,serif" font-size="14.00">motion_model(particles: np.ndarray, Q_model: np.ndarray, prev_particles: np.ndarray, template_particle: np.ndarray, search_area: Tuple[int, int], frame_size: Tuple[int, int], dt: float): np.ndarray</text>
</g>
<!-- PP2_Particle_Filter.particle_filter.Particle.ConstAccelParticle2DFixBbox&#45;&gt;PP2_Particle_Filter.particle_filter.ParticleTemplate.Particle -->
<g id="edge9" class="edge">
<title>PP2_Particle_Filter.particle_filter.Particle.ConstAccelParticle2DFixBbox&#45;&gt;PP2_Particle_Filter.particle_filter.ParticleTemplate.Particle</title>
<path fill="none" stroke="black" d="M1638.21,-159.51C1758.73,-180.7 1893.17,-204.34 2014.46,-225.67"/>
<polygon fill="none" stroke="black" points="2014.21,-229.18 2024.66,-227.46 2015.42,-222.29 2014.21,-229.18"/>
</g>
<!-- PP2_Particle_Filter.utils.Slicer.Crop -->
<g id="node4" class="node">
<title>PP2_Particle_Filter.utils.Slicer.Crop</title>
<polygon fill="none" stroke="black" points="288.5,-60 288.5,-130 713.5,-130 713.5,-60 288.5,-60"/>
<text text-anchor="middle" x="501" y="-114.8" font-family="Times New Roman,serif" font-size="14.00">Crop</text>
<polyline fill="none" stroke="black" points="288.5,-107 713.5,-107 "/>
<polyline fill="none" stroke="black" points="288.5,-83 713.5,-83 "/>
<text text-anchor="start" x="296.5" y="-67.8" font-family="Times New Roman,serif" font-size="14.00">image_slice(image: np.ndarray, template_particle: np.ndarray): np.ndarray</text>
</g>
<!-- PP2_Particle_Filter.utils.Slicer.Slicer -->
<g id="node16" class="node">
<title>PP2_Particle_Filter.utils.Slicer.Slicer</title>
<polygon fill="none" stroke="black" points="1040,-227.5 1040,-356.5 1310,-356.5 1310,-227.5 1040,-227.5"/>
<text text-anchor="middle" x="1175" y="-341.3" font-family="Times New Roman,serif" font-size="14.00">Slicer</text>
<polyline fill="none" stroke="black" points="1040,-333.5 1310,-333.5 "/>
<text text-anchor="start" x="1048" y="-318.3" font-family="Times New Roman,serif" font-size="14.00">freezeSize : bool</text>
<text text-anchor="start" x="1048" y="-303.3" font-family="Times New Roman,serif" font-size="14.00">image : ndarray</text>
<text text-anchor="start" x="1048" y="-288.3" font-family="Times New Roman,serif" font-size="14.00">size : Tuple[int, int]</text>
<polyline fill="none" stroke="black" points="1040,-280.5 1310,-280.5 "/>
<text text-anchor="start" x="1048" y="-265.3" font-family="Times New Roman,serif" font-size="14.00">image_slice(particles: np.ndarray): np.ndarray</text>
<text text-anchor="start" x="1048" y="-250.3" font-family="Times New Roman,serif" font-size="14.00">updateImage(newImage: np.ndarray): None</text>
<text text-anchor="start" x="1048" y="-235.3" font-family="Times New Roman,serif" font-size="14.00">updateSize(newSize: Tuple[int, int]): None</text>
</g>
<!-- PP2_Particle_Filter.utils.Slicer.Crop&#45;&gt;PP2_Particle_Filter.utils.Slicer.Slicer -->
<g id="edge16" class="edge">
<title>PP2_Particle_Filter.utils.Slicer.Crop&#45;&gt;PP2_Particle_Filter.utils.Slicer.Slicer</title>
<path fill="none" stroke="black" d="M571.9,-130.08C614.64,-149.63 670.59,-173.49 722,-190 823.12,-222.48 940.2,-248.29 1030,-265.68"/>
<polygon fill="none" stroke="black" points="1029.5,-269.15 1039.98,-267.6 1030.82,-262.28 1029.5,-269.15"/>
</g>
<!-- PP2_Particle_Filter.utils.Descriptors.Descriptor -->
<g id="node5" class="node">
<title>PP2_Particle_Filter.utils.Descriptors.Descriptor</title>
<polygon fill="none" stroke="black" points="4241.5,-249.5 4241.5,-334.5 4420.5,-334.5 4420.5,-249.5 4241.5,-249.5"/>
<text text-anchor="middle" x="4331" y="-319.3" font-family="Times New Roman,serif" font-size="14.00">Descriptor</text>
<polyline fill="none" stroke="black" points="4241.5,-311.5 4420.5,-311.5 "/>
<polyline fill="none" stroke="black" points="4241.5,-287.5 4420.5,-287.5 "/>
<text text-anchor="start" x="4249.5" y="-272.3" font-family="Times New Roman,serif" font-size="14.00">compute(images: np.ndarray)</text>
<text text-anchor="start" x="4249.5" y="-257.3" font-family="Times New Roman,serif" font-size="14.00">update(args)</text>
</g>
<!-- PP2_Particle_Filter.utils.Descriptors.Descriptor&#45;&gt;PP2_Particle_Filter.tracking -->
<g id="edge3" class="edge">
<title>PP2_Particle_Filter.utils.Descriptors.Descriptor&#45;&gt;PP2_Particle_Filter.tracking</title>
<path fill="none" stroke="black" d="M4241.45,-295.68C3893.58,-306.52 2648.23,-349.29 2589,-408 2547.85,-448.79 2564.9,-872.01 2550,-928 2547.62,-936.95 2543.78,-946.22 2539.78,-954.51"/>
<polygon fill="black" stroke="black" points="2539.64,-954.79 2540.45,-961.96 2534.15,-965.46 2533.34,-958.29 2539.64,-954.79"/>
</g>
<!-- PP2_Particle_Filter.particle_filter.ParticleFilter.ParticleFilter -->
<g id="node13" class="node">
<title>PP2_Particle_Filter.particle_filter.ParticleFilter.ParticleFilter</title>
<polygon fill="none" stroke="black" points="2230.5,-408.5 2230.5,-927.5 2541.5,-927.5 2541.5,-408.5 2230.5,-408.5"/>
<text text-anchor="middle" x="2386" y="-912.3" font-family="Times New Roman,serif" font-size="14.00">ParticleFilter</text>
<polyline fill="none" stroke="black" points="2230.5,-904.5 2541.5,-904.5 "/>
<text text-anchor="start" x="2238.5" y="-889.3" font-family="Times New Roman,serif" font-size="14.00">N : int</text>
<text text-anchor="start" x="2238.5" y="-874.3" font-family="Times New Roman,serif" font-size="14.00">Q_motion : Optional[np.ndarray], ndarray</text>
<text text-anchor="start" x="2238.5" y="-859.3" font-family="Times New Roman,serif" font-size="14.00">R : ndarray, Optional[np.ndarray]</text>
<text text-anchor="start" x="2238.5" y="-844.3" font-family="Times New Roman,serif" font-size="14.00">alpha : float</text>
<text text-anchor="start" x="2238.5" y="-829.3" font-family="Times New Roman,serif" font-size="14.00">descriptor</text>
<text text-anchor="start" x="2238.5" y="-814.3" font-family="Times New Roman,serif" font-size="14.00">frame_size : tuple</text>
<text text-anchor="start" x="2238.5" y="-799.3" font-family="Times New Roman,serif" font-size="14.00">init_pos : ndarray</text>
<text text-anchor="start" x="2238.5" y="-784.3" font-family="Times New Roman,serif" font-size="14.00">mu : tuple</text>
<text text-anchor="start" x="2238.5" y="-769.3" font-family="Times New Roman,serif" font-size="14.00">particle_struct</text>
<text text-anchor="start" x="2238.5" y="-754.3" font-family="Times New Roman,serif" font-size="14.00">particles : ndarray</text>
<text text-anchor="start" x="2238.5" y="-739.3" font-family="Times New Roman,serif" font-size="14.00">prev_frame : ndarray</text>
<text text-anchor="start" x="2238.5" y="-724.3" font-family="Times New Roman,serif" font-size="14.00">prev_particles : ndarray</text>
<text text-anchor="start" x="2238.5" y="-709.3" font-family="Times New Roman,serif" font-size="14.00">prev_patch_descriptor</text>
<text text-anchor="start" x="2238.5" y="-694.3" font-family="Times New Roman,serif" font-size="14.00">ranges</text>
<text text-anchor="start" x="2238.5" y="-679.3" font-family="Times New Roman,serif" font-size="14.00">ratio</text>
<text text-anchor="start" x="2238.5" y="-664.3" font-family="Times New Roman,serif" font-size="14.00">resample_method</text>
<text text-anchor="start" x="2238.5" y="-649.3" font-family="Times New Roman,serif" font-size="14.00">rng</text>
<text text-anchor="start" x="2238.5" y="-634.3" font-family="Times New Roman,serif" font-size="14.00">search_area</text>
<text text-anchor="start" x="2238.5" y="-619.3" font-family="Times New Roman,serif" font-size="14.00">seed : Optional[int]</text>
<text text-anchor="start" x="2238.5" y="-604.3" font-family="Times New Roman,serif" font-size="14.00">sigma : tuple</text>
<text text-anchor="start" x="2238.5" y="-589.3" font-family="Times New Roman,serif" font-size="14.00">similarity</text>
<text text-anchor="start" x="2238.5" y="-574.3" font-family="Times New Roman,serif" font-size="14.00">slicer</text>
<text text-anchor="start" x="2238.5" y="-559.3" font-family="Times New Roman,serif" font-size="14.00">state_dim : int</text>
<text text-anchor="start" x="2238.5" y="-544.3" font-family="Times New Roman,serif" font-size="14.00">template_patch</text>
<text text-anchor="start" x="2238.5" y="-529.3" font-family="Times New Roman,serif" font-size="14.00">track_dim : int</text>
<text text-anchor="start" x="2238.5" y="-514.3" font-family="Times New Roman,serif" font-size="14.00">weights</text>
<polyline fill="none" stroke="black" points="2230.5,-506.5 2541.5,-506.5 "/>
<text text-anchor="start" x="2238.5" y="-491.3" font-family="Times New Roman,serif" font-size="14.00">estimate(): None</text>
<text text-anchor="start" x="2238.5" y="-476.3" font-family="Times New Roman,serif" font-size="14.00">forward(z: np.ndarray, dt: float, fraction: float): None</text>
<text text-anchor="start" x="2238.5" y="-461.3" font-family="Times New Roman,serif" font-size="14.00">neff(): float</text>
<text text-anchor="start" x="2238.5" y="-446.3" font-family="Times New Roman,serif" font-size="14.00">predict(dt: Optional[float]): None</text>
<text text-anchor="start" x="2238.5" y="-431.3" font-family="Times New Roman,serif" font-size="14.00">resample(fraction: Optional[float]): None</text>
<text text-anchor="start" x="2238.5" y="-416.3" font-family="Times New Roman,serif" font-size="14.00">update(z: np.ndarray): None</text>
</g>
<!-- PP2_Particle_Filter.utils.Descriptors.Descriptor&#45;&gt;PP2_Particle_Filter.particle_filter.ParticleFilter.ParticleFilter -->
<g id="edge6" class="edge">
<title>PP2_Particle_Filter.utils.Descriptors.Descriptor&#45;&gt;PP2_Particle_Filter.particle_filter.ParticleFilter.ParticleFilter</title>
<path fill="none" stroke="black" d="M4241.21,-296.69C3874.19,-311.81 2506.95,-368.55 2498,-375 2488.09,-382.14 2479.06,-390.29 2470.82,-399.2"/>
<polygon fill="none" stroke="black" points="2470.73,-399.31 2469.81,-406.46 2462.85,-408.36 2463.77,-401.21 2470.73,-399.31"/>
<text text-anchor="middle" x="2527" y="-378.8" font-family="Times New Roman,serif" font-size="14.00" fill="green">descriptor</text>
</g>
<!-- PP2_Particle_Filter.utils.Descriptors.HOG -->
<g id="node6" class="node">
<title>PP2_Particle_Filter.utils.Descriptors.HOG</title>
<polygon fill="none" stroke="black" points="4044.5,-0.5 4044.5,-189.5 4223.5,-189.5 4223.5,-0.5 4044.5,-0.5"/>
<text text-anchor="middle" x="4134" y="-174.3" font-family="Times New Roman,serif" font-size="14.00">HOG</text>
<polyline fill="none" stroke="black" points="4044.5,-166.5 4223.5,-166.5 "/>
<text text-anchor="start" x="4052.5" y="-151.3" font-family="Times New Roman,serif" font-size="14.00">blockSize : tuple</text>
<text text-anchor="start" x="4052.5" y="-136.3" font-family="Times New Roman,serif" font-size="14.00">blockStride : tuple</text>
<text text-anchor="start" x="4052.5" y="-121.3" font-family="Times New Roman,serif" font-size="14.00">cellSize : tuple</text>
<text text-anchor="start" x="4052.5" y="-106.3" font-family="Times New Roman,serif" font-size="14.00">freezeSize : bool</text>
<text text-anchor="start" x="4052.5" y="-91.3" font-family="Times New Roman,serif" font-size="14.00">hog</text>
<text text-anchor="start" x="4052.5" y="-76.3" font-family="Times New Roman,serif" font-size="14.00">nbins : int</text>
<text text-anchor="start" x="4052.5" y="-61.3" font-family="Times New Roman,serif" font-size="14.00">winSize : tuple</text>
<polyline fill="none" stroke="black" points="4044.5,-53.5 4223.5,-53.5 "/>
<text text-anchor="start" x="4052.5" y="-38.3" font-family="Times New Roman,serif" font-size="14.00">compute(images: np.ndarray)</text>
<text text-anchor="start" x="4052.5" y="-23.3" font-family="Times New Roman,serif" font-size="14.00">expectedF()</text>
<text text-anchor="start" x="4052.5" y="-8.3" font-family="Times New Roman,serif" font-size="14.00">update(winSize)</text>
</g>
<!-- PP2_Particle_Filter.utils.Descriptors.HOG&#45;&gt;PP2_Particle_Filter.utils.Descriptors.Descriptor -->
<g id="edge11" class="edge">
<title>PP2_Particle_Filter.utils.Descriptors.HOG&#45;&gt;PP2_Particle_Filter.utils.Descriptors.Descriptor</title>
<path fill="none" stroke="black" d="M4223.57,-184.66C4243.49,-204.38 4263.9,-224.58 4281.51,-242.01"/>
<polygon fill="none" stroke="black" points="4279.31,-244.75 4288.87,-249.3 4284.23,-239.78 4279.31,-244.75"/>
</g>
<!-- PP2_Particle_Filter.utils.Descriptors.HOGCASCADE -->
<g id="node7" class="node">
<title>PP2_Particle_Filter.utils.Descriptors.HOGCASCADE</title>
<polygon fill="none" stroke="black" points="4241.5,-0.5 4241.5,-189.5 4420.5,-189.5 4420.5,-0.5 4241.5,-0.5"/>
<text text-anchor="middle" x="4331" y="-174.3" font-family="Times New Roman,serif" font-size="14.00">HOGCASCADE</text>
<polyline fill="none" stroke="black" points="4241.5,-166.5 4420.5,-166.5 "/>
<text text-anchor="start" x="4249.5" y="-151.3" font-family="Times New Roman,serif" font-size="14.00">blockSize : tuple</text>
<text text-anchor="start" x="4249.5" y="-136.3" font-family="Times New Roman,serif" font-size="14.00">blockStride : tuple</text>
<text text-anchor="start" x="4249.5" y="-121.3" font-family="Times New Roman,serif" font-size="14.00">cellSize : tuple</text>
<text text-anchor="start" x="4249.5" y="-106.3" font-family="Times New Roman,serif" font-size="14.00">freezeSize : bool</text>
<text text-anchor="start" x="4249.5" y="-91.3" font-family="Times New Roman,serif" font-size="14.00">hog</text>
<text text-anchor="start" x="4249.5" y="-76.3" font-family="Times New Roman,serif" font-size="14.00">nbcascade</text>
<text text-anchor="start" x="4249.5" y="-61.3" font-family="Times New Roman,serif" font-size="14.00">nbins : int</text>
<text text-anchor="start" x="4249.5" y="-46.3" font-family="Times New Roman,serif" font-size="14.00">winSize : tuple</text>
<polyline fill="none" stroke="black" points="4241.5,-38.5 4420.5,-38.5 "/>
<text text-anchor="start" x="4249.5" y="-23.3" font-family="Times New Roman,serif" font-size="14.00">compute(images: np.ndarray)</text>
<text text-anchor="start" x="4249.5" y="-8.3" font-family="Times New Roman,serif" font-size="14.00">update(winSize)</text>
</g>
<!-- PP2_Particle_Filter.utils.Descriptors.HOGCASCADE&#45;&gt;PP2_Particle_Filter.utils.Descriptors.Descriptor -->
<g id="edge12" class="edge">
<title>PP2_Particle_Filter.utils.Descriptors.HOGCASCADE&#45;&gt;PP2_Particle_Filter.utils.Descriptors.Descriptor</title>
<path fill="none" stroke="black" d="M4331,-189.5C4331,-206.5 4331,-223.66 4331,-238.9"/>
<polygon fill="none" stroke="black" points="4327.5,-239.13 4331,-249.13 4334.5,-239.13 4327.5,-239.13"/>
</g>
<!-- PP2_Particle_Filter.utils.Descriptors.HOGCASCADELBP -->
<g id="node8" class="node">
<title>PP2_Particle_Filter.utils.Descriptors.HOGCASCADELBP</title>
<polygon fill="none" stroke="black" points="4438.5,-8 4438.5,-182 4617.5,-182 4617.5,-8 4438.5,-8"/>
<text text-anchor="middle" x="4528" y="-166.8" font-family="Times New Roman,serif" font-size="14.00">HOGCASCADELBP</text>
<polyline fill="none" stroke="black" points="4438.5,-159 4617.5,-159 "/>
<text text-anchor="start" x="4446.5" y="-143.8" font-family="Times New Roman,serif" font-size="14.00">blockSize : tuple</text>
<text text-anchor="start" x="4446.5" y="-128.8" font-family="Times New Roman,serif" font-size="14.00">blockStride : tuple</text>
<text text-anchor="start" x="4446.5" y="-113.8" font-family="Times New Roman,serif" font-size="14.00">cellSize : tuple</text>
<text text-anchor="start" x="4446.5" y="-98.8" font-family="Times New Roman,serif" font-size="14.00">nbcascade</text>
<text text-anchor="start" x="4446.5" y="-83.8" font-family="Times New Roman,serif" font-size="14.00">nbins : int</text>
<text text-anchor="start" x="4446.5" y="-68.8" font-family="Times New Roman,serif" font-size="14.00">numPoints</text>
<text text-anchor="start" x="4446.5" y="-53.8" font-family="Times New Roman,serif" font-size="14.00">radius</text>
<text text-anchor="start" x="4446.5" y="-38.8" font-family="Times New Roman,serif" font-size="14.00">winSize : tuple</text>
<polyline fill="none" stroke="black" points="4438.5,-31 4617.5,-31 "/>
<text text-anchor="start" x="4446.5" y="-15.8" font-family="Times New Roman,serif" font-size="14.00">compute(images: np.ndarray)</text>
</g>
<!-- PP2_Particle_Filter.utils.Descriptors.HOGCASCADELBP&#45;&gt;PP2_Particle_Filter.utils.Descriptors.Descriptor -->
<g id="edge13" class="edge">
<title>PP2_Particle_Filter.utils.Descriptors.HOGCASCADELBP&#45;&gt;PP2_Particle_Filter.utils.Descriptors.Descriptor</title>
<path fill="none" stroke="black" d="M4441.02,-182.1C4420.18,-202.72 4398.65,-224.04 4380.21,-242.29"/>
<polygon fill="none" stroke="black" points="4377.69,-239.86 4373.05,-249.38 4382.62,-244.83 4377.69,-239.86"/>
</g>
<!-- PP2_Particle_Filter.utils.Descriptors.HOGCOLOR -->
<g id="node9" class="node">
<title>PP2_Particle_Filter.utils.Descriptors.HOGCOLOR</title>
<polygon fill="none" stroke="black" points="4635.5,-0.5 4635.5,-189.5 4814.5,-189.5 4814.5,-0.5 4635.5,-0.5"/>
<text text-anchor="middle" x="4725" y="-174.3" font-family="Times New Roman,serif" font-size="14.00">HOGCOLOR</text>
<polyline fill="none" stroke="black" points="4635.5,-166.5 4814.5,-166.5 "/>
<text text-anchor="start" x="4643.5" y="-151.3" font-family="Times New Roman,serif" font-size="14.00">blockSize : tuple</text>
<text text-anchor="start" x="4643.5" y="-136.3" font-family="Times New Roman,serif" font-size="14.00">blockStride : tuple</text>
<text text-anchor="start" x="4643.5" y="-121.3" font-family="Times New Roman,serif" font-size="14.00">cellSize : tuple</text>
<text text-anchor="start" x="4643.5" y="-106.3" font-family="Times New Roman,serif" font-size="14.00">freezeSize : bool</text>
<text text-anchor="start" x="4643.5" y="-91.3" font-family="Times New Roman,serif" font-size="14.00">hog</text>
<text text-anchor="start" x="4643.5" y="-76.3" font-family="Times New Roman,serif" font-size="14.00">nbins : int</text>
<text text-anchor="start" x="4643.5" y="-61.3" font-family="Times New Roman,serif" font-size="14.00">winSize : tuple</text>
<polyline fill="none" stroke="black" points="4635.5,-53.5 4814.5,-53.5 "/>
<text text-anchor="start" x="4643.5" y="-38.3" font-family="Times New Roman,serif" font-size="14.00">compute(images: np.ndarray)</text>
<text text-anchor="start" x="4643.5" y="-23.3" font-family="Times New Roman,serif" font-size="14.00">expectedF()</text>
<text text-anchor="start" x="4643.5" y="-8.3" font-family="Times New Roman,serif" font-size="14.00">update(winSize)</text>
</g>
<!-- PP2_Particle_Filter.utils.Descriptors.HOGCOLOR&#45;&gt;PP2_Particle_Filter.utils.Descriptors.Descriptor -->
<g id="edge14" class="edge">
<title>PP2_Particle_Filter.utils.Descriptors.HOGCOLOR&#45;&gt;PP2_Particle_Filter.utils.Descriptors.Descriptor</title>
<path fill="none" stroke="black" d="M4635.41,-184.59C4632.62,-186.47 4629.82,-188.28 4627,-190 4566.26,-226.97 4490.2,-252.54 4430.39,-268.71"/>
<polygon fill="none" stroke="black" points="4429.33,-265.37 4420.56,-271.32 4431.12,-272.14 4429.33,-265.37"/>
</g>
<!-- PP2_Particle_Filter.utils.Descriptors.LBP -->
<g id="node10" class="node">
<title>PP2_Particle_Filter.utils.Descriptors.LBP</title>
<polygon fill="none" stroke="black" points="4833,-53 4833,-137 5039,-137 5039,-53 4833,-53"/>
<text text-anchor="middle" x="4936" y="-121.8" font-family="Times New Roman,serif" font-size="14.00">LBP</text>
<polyline fill="none" stroke="black" points="4833,-114 5039,-114 "/>
<text text-anchor="start" x="4841" y="-98.8" font-family="Times New Roman,serif" font-size="14.00">numPoints</text>
<text text-anchor="start" x="4841" y="-83.8" font-family="Times New Roman,serif" font-size="14.00">radius</text>
<polyline fill="none" stroke="black" points="4833,-76 5039,-76 "/>
<text text-anchor="start" x="4841" y="-60.8" font-family="Times New Roman,serif" font-size="14.00">compute(images: np.ndarray, eps)</text>
</g>
<!-- PP2_Particle_Filter.utils.Descriptors.LBP&#45;&gt;PP2_Particle_Filter.utils.Descriptors.Descriptor -->
<g id="edge15" class="edge">
<title>PP2_Particle_Filter.utils.Descriptors.LBP&#45;&gt;PP2_Particle_Filter.utils.Descriptors.Descriptor</title>
<path fill="none" stroke="black" d="M4896.96,-137.13C4876.87,-155.98 4850.97,-176.97 4824,-190 4696.86,-251.44 4533.76,-275.56 4430.78,-284.99"/>
<polygon fill="none" stroke="black" points="4430.35,-281.52 4420.69,-285.88 4430.96,-288.49 4430.35,-281.52"/>
</g>
<!-- PP2_Particle_Filter.detect_init.Model -->
<g id="node11" class="node">
<title>PP2_Particle_Filter.detect_init.Model</title>
<polygon fill="none" stroke="black" points="2598,-581 2598,-755 2756,-755 2756,-581 2598,-581"/>
<text text-anchor="middle" x="2677" y="-739.8" font-family="Times New Roman,serif" font-size="14.00">Model</text>
<polyline fill="none" stroke="black" points="2598,-732 2756,-732 "/>
<text text-anchor="start" x="2606" y="-716.8" font-family="Times New Roman,serif" font-size="14.00">conf_thres : float</text>
<text text-anchor="start" x="2606" y="-701.8" font-family="Times New Roman,serif" font-size="14.00">device</text>
<text text-anchor="start" x="2606" y="-686.8" font-family="Times New Roman,serif" font-size="14.00">half</text>
<text text-anchor="start" x="2606" y="-671.8" font-family="Times New Roman,serif" font-size="14.00">img_size</text>
<text text-anchor="start" x="2606" y="-656.8" font-family="Times New Roman,serif" font-size="14.00">iou_thres : float</text>
<text text-anchor="start" x="2606" y="-641.8" font-family="Times New Roman,serif" font-size="14.00">model</text>
<text text-anchor="start" x="2606" y="-626.8" font-family="Times New Roman,serif" font-size="14.00">stride : int</text>
<text text-anchor="start" x="2606" y="-611.8" font-family="Times New Roman,serif" font-size="14.00">weights : str</text>
<polyline fill="none" stroke="black" points="2598,-604 2756,-604 "/>
<text text-anchor="start" x="2606" y="-588.8" font-family="Times New Roman,serif" font-size="14.00">detect(image: np.ndarray)</text>
</g>
<!-- PP2_Particle_Filter.detect_init.Model&#45;&gt;PP2_Particle_Filter.tracking -->
<g id="edge2" class="edge">
<title>PP2_Particle_Filter.detect_init.Model&#45;&gt;PP2_Particle_Filter.tracking</title>
<path fill="none" stroke="black" d="M2664.47,-755.01C2652.23,-814.19 2628.62,-891.78 2584,-947 2580.61,-951.19 2576.59,-955 2572.25,-958.43"/>
<polygon fill="black" stroke="black" points="2572.22,-958.45 2569.6,-965.17 2562.39,-965.33 2565.01,-958.62 2572.22,-958.45"/>
</g>
<!-- PP2_Particle_Filter.particle_filter.ParticleTemplate.Particle&#45;&gt;PP2_Particle_Filter.particle_filter.ParticleFilter.ParticleFilter -->
<g id="edge5" class="edge">
<title>PP2_Particle_Filter.particle_filter.ParticleTemplate.Particle&#45;&gt;PP2_Particle_Filter.particle_filter.ParticleFilter.ParticleFilter</title>
<path fill="none" stroke="black" d="M2386,-356.87C2386,-368.93 2386,-382.22 2386,-396.31"/>
<polygon fill="black" stroke="black" points="2386,-396.33 2390,-402.33 2386,-408.33 2382,-402.33 2386,-396.33"/>
<text text-anchor="middle" x="2426" y="-378.8" font-family="Times New Roman,serif" font-size="14.00" fill="green">particle_struct</text>
</g>
<!-- PP2_Particle_Filter.particle_filter.ParticleFilter.ParticleFilter&#45;&gt;PP2_Particle_Filter.tracking -->
<g id="edge1" class="edge">
<title>PP2_Particle_Filter.particle_filter.ParticleFilter.ParticleFilter&#45;&gt;PP2_Particle_Filter.tracking</title>
<path fill="none" stroke="black" d="M2499.8,-927.53C2504.23,-937.59 2508.22,-946.66 2511.63,-954.4"/>
<polygon fill="black" stroke="black" points="2511.64,-954.43 2517.72,-958.31 2516.48,-965.42 2510.4,-961.54 2511.64,-954.43"/>
</g>
<!-- PP2_Particle_Filter.particle_filter.Particle.PredPosParticle2DBbox -->
<g id="node14" class="node">
<title>PP2_Particle_Filter.particle_filter.Particle.PredPosParticle2DBbox</title>
<polygon fill="none" stroke="black" points="1840.5,-15.5 1840.5,-174.5 2931.5,-174.5 2931.5,-15.5 1840.5,-15.5"/>
<text text-anchor="middle" x="2386" y="-159.3" font-family="Times New Roman,serif" font-size="14.00">PredPosParticle2DBbox</text>
<polyline fill="none" stroke="black" points="1840.5,-151.5 2931.5,-151.5 "/>
<text text-anchor="start" x="1848.5" y="-136.3" font-family="Times New Roman,serif" font-size="14.00">particle_dim : int</text>
<text text-anchor="start" x="1848.5" y="-121.3" font-family="Times New Roman,serif" font-size="14.00">ratio</text>
<text text-anchor="start" x="1848.5" y="-106.3" font-family="Times New Roman,serif" font-size="14.00">rng</text>
<polyline fill="none" stroke="black" points="1840.5,-98.5 2931.5,-98.5 "/>
<text text-anchor="start" x="1848.5" y="-83.3" font-family="Times New Roman,serif" font-size="14.00">compute_gamma(N: int, track_dim: int): np.ndarray</text>
<text text-anchor="start" x="1848.5" y="-68.3" font-family="Times New Roman,serif" font-size="14.00">create_gaussian_particles(N: int, track_dim: int, init_pos: np.ndarray, std: np.ndarray): np.ndarray</text>
<text text-anchor="start" x="1848.5" y="-53.3" font-family="Times New Roman,serif" font-size="14.00">create_uniform_particles(N: int, track_dim: int, ranges: np.ndarray): np.ndarray</text>
<text text-anchor="start" x="1848.5" y="-38.3" font-family="Times New Roman,serif" font-size="14.00">measurement_model(coeff_sim: np.ndarray, particles: np.ndarray, template_particle: np.ndarray, R: np.ndarray): np.ndarray</text>
<text text-anchor="start" x="1848.5" y="-23.3" font-family="Times New Roman,serif" font-size="14.00">motion_model(particles: np.ndarray, Q_model: np.ndarray, prev_particles: np.ndarray, template_particle: np.ndarray, search_area: Tuple[int, int], frame_size: Tuple[int, int], dt: float): np.ndarray</text>
</g>
<!-- PP2_Particle_Filter.particle_filter.Particle.PredPosParticle2DBbox&#45;&gt;PP2_Particle_Filter.particle_filter.ParticleTemplate.Particle -->
<g id="edge10" class="edge">
<title>PP2_Particle_Filter.particle_filter.Particle.PredPosParticle2DBbox&#45;&gt;PP2_Particle_Filter.particle_filter.ParticleTemplate.Particle</title>
<path fill="none" stroke="black" d="M2386,-174.75C2386,-188.65 2386,-203.08 2386,-216.84"/>
<polygon fill="none" stroke="black" points="2382.5,-217.22 2386,-227.22 2389.5,-217.22 2382.5,-217.22"/>
</g>
<!-- PP2_Particle_Filter.utils.Slicer.Resize -->
<g id="node15" class="node">
<title>PP2_Particle_Filter.utils.Slicer.Resize</title>
<polygon fill="none" stroke="black" points="0,-60 0,-130 270,-130 270,-60 0,-60"/>
<text text-anchor="middle" x="135" y="-114.8" font-family="Times New Roman,serif" font-size="14.00">Resize</text>
<polyline fill="none" stroke="black" points="0,-107 270,-107 "/>
<polyline fill="none" stroke="black" points="0,-83 270,-83 "/>
<text text-anchor="start" x="8" y="-67.8" font-family="Times New Roman,serif" font-size="14.00">image_slice(particles: np.ndarray): np.ndarray</text>
</g>
<!-- PP2_Particle_Filter.utils.Slicer.Resize&#45;&gt;PP2_Particle_Filter.utils.Slicer.Slicer -->
<g id="edge17" class="edge">
<title>PP2_Particle_Filter.utils.Slicer.Resize&#45;&gt;PP2_Particle_Filter.utils.Slicer.Slicer</title>
<path fill="none" stroke="black" d="M175.68,-130.01C203.1,-150.96 241.07,-176.36 279,-190 413.49,-238.37 811.98,-269.13 1029.44,-282.78"/>
<polygon fill="none" stroke="black" points="1029.45,-286.29 1039.65,-283.42 1029.89,-279.3 1029.45,-286.29"/>
</g>
<!-- PP2_Particle_Filter.utils.Slicer.Slicer&#45;&gt;PP2_Particle_Filter.tracking -->
<g id="edge4" class="edge">
<title>PP2_Particle_Filter.utils.Slicer.Slicer&#45;&gt;PP2_Particle_Filter.tracking</title>
<path fill="none" stroke="black" d="M1255.62,-356.51C1424.27,-485.94 1831.07,-780.44 2221,-928 2297.97,-957.13 2391.97,-970.94 2454.67,-977.31"/>
<polygon fill="black" stroke="black" points="2454.83,-977.33 2461.19,-973.93 2466.78,-978.49 2460.42,-981.89 2454.83,-977.33"/>
</g>
<!-- PP2_Particle_Filter.utils.Slicer.Slicer&#45;&gt;PP2_Particle_Filter.particle_filter.ParticleFilter.ParticleFilter -->
<g id="edge7" class="edge">
<title>PP2_Particle_Filter.utils.Slicer.Slicer&#45;&gt;PP2_Particle_Filter.particle_filter.ParticleFilter.ParticleFilter</title>
<path fill="none" stroke="black" d="M1310.18,-304.6C1418.06,-316.09 1572.24,-337.54 1703,-375 1885.41,-427.26 2083.77,-515.91 2219.48,-581.86"/>
<polygon fill="none" stroke="black" points="2219.58,-581.9 2226.73,-580.94 2230.37,-587.16 2223.22,-588.13 2219.58,-581.9"/>
<text text-anchor="middle" x="1757" y="-378.8" font-family="Times New Roman,serif" font-size="14.00" fill="green">slicer</text>
</g>
</g>
</svg>
