<?xml version="1.0" encoding="UTF-8" standalone="no"?>
<!DOCTYPE svg PUBLIC "-//W3C//DTD SVG 1.1//EN"
 "http://www.w3.org/Graphics/SVG/1.1/DTD/svg11.dtd">
<!-- Generated by graphviz version 3.0.0 (20220226.1711)
 -->
<!-- Title: descriptors Pages: 1 -->
<svg width="1003pt" height="320pt"
 viewBox="0.00 0.00 1002.50 320.00" xmlns="http://www.w3.org/2000/svg" xmlns:xlink="http://www.w3.org/1999/xlink">
<g id="graph0" class="graph" transform="scale(1 1) rotate(0) translate(4 316)">
<title>descriptors</title>
<polygon fill="white" stroke="transparent" points="-4,4 -4,-316 998.5,-316 998.5,4 -4,4"/>
<!-- PP2_Particle_Filter.utils.Descriptors.Descriptor -->
<g id="node1" class="node">
<title>PP2_Particle_Filter.utils.Descriptors.Descriptor</title>
<polygon fill="none" stroke="black" points="394,-226.5 394,-311.5 573,-311.5 573,-226.5 394,-226.5"/>
<text text-anchor="middle" x="483.5" y="-296.3" font-family="Times New Roman,serif" font-size="14.00">Descriptor</text>
<polyline fill="none" stroke="black" points="394,-288.5 573,-288.5 "/>
<polyline fill="none" stroke="black" points="394,-264.5 573,-264.5 "/>
<text text-anchor="start" x="402" y="-249.3" font-family="Times New Roman,serif" font-size="14.00">compute(images: np.ndarray)</text>
<text text-anchor="start" x="402" y="-234.3" font-family="Times New Roman,serif" font-size="14.00">update(args)</text>
</g>
<!-- PP2_Particle_Filter.utils.Descriptors.HOG -->
<g id="node2" class="node">
<title>PP2_Particle_Filter.utils.Descriptors.HOG</title>
<polygon fill="none" stroke="black" points="0,-0.5 0,-189.5 179,-189.5 179,-0.5 0,-0.5"/>
<text text-anchor="middle" x="89.5" y="-174.3" font-family="Times New Roman,serif" font-size="14.00">HOG</text>
<polyline fill="none" stroke="black" points="0,-166.5 179,-166.5 "/>
<text text-anchor="start" x="8" y="-151.3" font-family="Times New Roman,serif" font-size="14.00">blockSize : tuple</text>
<text text-anchor="start" x="8" y="-136.3" font-family="Times New Roman,serif" font-size="14.00">blockStride : tuple</text>
<text text-anchor="start" x="8" y="-121.3" font-family="Times New Roman,serif" font-size="14.00">cellSize : tuple</text>
<text text-anchor="start" x="8" y="-106.3" font-family="Times New Roman,serif" font-size="14.00">freezeSize : bool</text>
<text text-anchor="start" x="8" y="-91.3" font-family="Times New Roman,serif" font-size="14.00">hog</text>
<text text-anchor="start" x="8" y="-76.3" font-family="Times New Roman,serif" font-size="14.00">nbins : int</text>
<text text-anchor="start" x="8" y="-61.3" font-family="Times New Roman,serif" font-size="14.00">winSize : tuple</text>
<polyline fill="none" stroke="black" points="0,-53.5 179,-53.5 "/>
<text text-anchor="start" x="8" y="-38.3" font-family="Times New Roman,serif" font-size="14.00">compute(images: np.ndarray)</text>
<text text-anchor="start" x="8" y="-23.3" font-family="Times New Roman,serif" font-size="14.00">expectedF()</text>
<text text-anchor="start" x="8" y="-8.3" font-family="Times New Roman,serif" font-size="14.00">update(winSize)</text>
</g>
<!-- PP2_Particle_Filter.utils.Descriptors.HOG&#45;&gt;PP2_Particle_Filter.utils.Descriptors.Descriptor -->
<g id="edge1" class="edge">
<title>PP2_Particle_Filter.utils.Descriptors.HOG&#45;&gt;PP2_Particle_Filter.utils.Descriptors.Descriptor</title>
<path fill="none" stroke="black" d="M179.24,-185.05C181.97,-186.79 184.72,-188.44 187.5,-190 248.08,-223.97 323.95,-243.59 383.71,-254.65"/>
<polygon fill="none" stroke="black" points="383.45,-258.16 393.91,-256.48 384.69,-251.27 383.45,-258.16"/>
</g>
<!-- PP2_Particle_Filter.utils.Descriptors.HOGCASCADE -->
<g id="node3" class="node">
<title>PP2_Particle_Filter.utils.Descriptors.HOGCASCADE</title>
<polygon fill="none" stroke="black" points="197,-0.5 197,-189.5 376,-189.5 376,-0.5 197,-0.5"/>
<text text-anchor="middle" x="286.5" y="-174.3" font-family="Times New Roman,serif" font-size="14.00">HOGCASCADE</text>
<polyline fill="none" stroke="black" points="197,-166.5 376,-166.5 "/>
<text text-anchor="start" x="205" y="-151.3" font-family="Times New Roman,serif" font-size="14.00">blockSize : tuple</text>
<text text-anchor="start" x="205" y="-136.3" font-family="Times New Roman,serif" font-size="14.00">blockStride : tuple</text>
<text text-anchor="start" x="205" y="-121.3" font-family="Times New Roman,serif" font-size="14.00">cellSize : tuple</text>
<text text-anchor="start" x="205" y="-106.3" font-family="Times New Roman,serif" font-size="14.00">freezeSize : bool</text>
<text text-anchor="start" x="205" y="-91.3" font-family="Times New Roman,serif" font-size="14.00">hog</text>
<text text-anchor="start" x="205" y="-76.3" font-family="Times New Roman,serif" font-size="14.00">nbcascade</text>
<text text-anchor="start" x="205" y="-61.3" font-family="Times New Roman,serif" font-size="14.00">nbins : int</text>
<text text-anchor="start" x="205" y="-46.3" font-family="Times New Roman,serif" font-size="14.00">winSize : tuple</text>
<polyline fill="none" stroke="black" points="197,-38.5 376,-38.5 "/>
<text text-anchor="start" x="205" y="-23.3" font-family="Times New Roman,serif" font-size="14.00">compute(images: np.ndarray)</text>
<text text-anchor="start" x="205" y="-8.3" font-family="Times New Roman,serif" font-size="14.00">update(winSize)</text>
</g>
<!-- PP2_Particle_Filter.utils.Descriptors.HOGCASCADE&#45;&gt;PP2_Particle_Filter.utils.Descriptors.Descriptor -->
<g id="edge2" class="edge">
<title>PP2_Particle_Filter.utils.Descriptors.HOGCASCADE&#45;&gt;PP2_Particle_Filter.utils.Descriptors.Descriptor</title>
<path fill="none" stroke="black" d="M376.17,-182.66C378.96,-185.15 381.74,-187.6 384.5,-190 396.01,-200.01 408.6,-210.36 420.82,-220.11"/>
<polygon fill="none" stroke="black" points="418.77,-222.96 428.78,-226.43 423.12,-217.47 418.77,-222.96"/>
</g>
<!-- PP2_Particle_Filter.utils.Descriptors.HOGCASCADELBP -->
<g id="node4" class="node">
<title>PP2_Particle_Filter.utils.Descriptors.HOGCASCADELBP</title>
<polygon fill="none" stroke="black" points="394,-8 394,-182 573,-182 573,-8 394,-8"/>
<text text-anchor="middle" x="483.5" y="-166.8" font-family="Times New Roman,serif" font-size="14.00">HOGCASCADELBP</text>
<polyline fill="none" stroke="black" points="394,-159 573,-159 "/>
<text text-anchor="start" x="402" y="-143.8" font-family="Times New Roman,serif" font-size="14.00">blockSize : tuple</text>
<text text-anchor="start" x="402" y="-128.8" font-family="Times New Roman,serif" font-size="14.00">blockStride : tuple</text>
<text text-anchor="start" x="402" y="-113.8" font-family="Times New Roman,serif" font-size="14.00">cellSize : tuple</text>
<text text-anchor="start" x="402" y="-98.8" font-family="Times New Roman,serif" font-size="14.00">nbcascade</text>
<text text-anchor="start" x="402" y="-83.8" font-family="Times New Roman,serif" font-size="14.00">nbins : int</text>
<text text-anchor="start" x="402" y="-68.8" font-family="Times New Roman,serif" font-size="14.00">numPoints</text>
<text text-anchor="start" x="402" y="-53.8" font-family="Times New Roman,serif" font-size="14.00">radius</text>
<text text-anchor="start" x="402" y="-38.8" font-family="Times New Roman,serif" font-size="14.00">winSize : tuple</text>
<polyline fill="none" stroke="black" points="394,-31 573,-31 "/>
<text text-anchor="start" x="402" y="-15.8" font-family="Times New Roman,serif" font-size="14.00">compute(images: np.ndarray)</text>
</g>
<!-- PP2_Particle_Filter.utils.Descriptors.HOGCASCADELBP&#45;&gt;PP2_Particle_Filter.utils.Descriptors.Descriptor -->
<g id="edge3" class="edge">
<title>PP2_Particle_Filter.utils.Descriptors.HOGCASCADELBP&#45;&gt;PP2_Particle_Filter.utils.Descriptors.Descriptor</title>
<path fill="none" stroke="black" d="M483.5,-182.25C483.5,-193.69 483.5,-205.13 483.5,-215.75"/>
<polygon fill="none" stroke="black" points="480,-216.07 483.5,-226.07 487,-216.07 480,-216.07"/>
</g>
<!-- PP2_Particle_Filter.utils.Descriptors.HOGCOLOR -->
<g id="node5" class="node">
<title>PP2_Particle_Filter.utils.Descriptors.HOGCOLOR</title>
<polygon fill="none" stroke="black" points="591,-0.5 591,-189.5 770,-189.5 770,-0.5 591,-0.5"/>
<text text-anchor="middle" x="680.5" y="-174.3" font-family="Times New Roman,serif" font-size="14.00">HOGCOLOR</text>
<polyline fill="none" stroke="black" points="591,-166.5 770,-166.5 "/>
<text text-anchor="start" x="599" y="-151.3" font-family="Times New Roman,serif" font-size="14.00">blockSize : tuple</text>
<text text-anchor="start" x="599" y="-136.3" font-family="Times New Roman,serif" font-size="14.00">blockStride : tuple</text>
<text text-anchor="start" x="599" y="-121.3" font-family="Times New Roman,serif" font-size="14.00">cellSize : tuple</text>
<text text-anchor="start" x="599" y="-106.3" font-family="Times New Roman,serif" font-size="14.00">freezeSize : bool</text>
<text text-anchor="start" x="599" y="-91.3" font-family="Times New Roman,serif" font-size="14.00">hog</text>
<text text-anchor="start" x="599" y="-76.3" font-family="Times New Roman,serif" font-size="14.00">nbins : int</text>
<text text-anchor="start" x="599" y="-61.3" font-family="Times New Roman,serif" font-size="14.00">winSize : tuple</text>
<polyline fill="none" stroke="black" points="591,-53.5 770,-53.5 "/>
<text text-anchor="start" x="599" y="-38.3" font-family="Times New Roman,serif" font-size="14.00">compute(images: np.ndarray)</text>
<text text-anchor="start" x="599" y="-23.3" font-family="Times New Roman,serif" font-size="14.00">expectedF()</text>
<text text-anchor="start" x="599" y="-8.3" font-family="Times New Roman,serif" font-size="14.00">update(winSize)</text>
</g>
<!-- PP2_Particle_Filter.utils.Descriptors.HOGCOLOR&#45;&gt;PP2_Particle_Filter.utils.Descriptors.Descriptor -->
<g id="edge4" class="edge">
<title>PP2_Particle_Filter.utils.Descriptors.HOGCOLOR&#45;&gt;PP2_Particle_Filter.utils.Descriptors.Descriptor</title>
<path fill="none" stroke="black" d="M590.83,-182.66C588.04,-185.15 585.26,-187.6 582.5,-190 570.99,-200.01 558.4,-210.36 546.18,-220.11"/>
<polygon fill="none" stroke="black" points="543.88,-217.47 538.22,-226.43 548.23,-222.96 543.88,-217.47"/>
</g>
<!-- PP2_Particle_Filter.utils.Descriptors.LBP -->
<g id="node6" class="node">
<title>PP2_Particle_Filter.utils.Descriptors.LBP</title>
<polygon fill="none" stroke="black" points="788.5,-53 788.5,-137 994.5,-137 994.5,-53 788.5,-53"/>
<text text-anchor="middle" x="891.5" y="-121.8" font-family="Times New Roman,serif" font-size="14.00">LBP</text>
<polyline fill="none" stroke="black" points="788.5,-114 994.5,-114 "/>
<text text-anchor="start" x="796.5" y="-98.8" font-family="Times New Roman,serif" font-size="14.00">numPoints</text>
<text text-anchor="start" x="796.5" y="-83.8" font-family="Times New Roman,serif" font-size="14.00">radius</text>
<polyline fill="none" stroke="black" points="788.5,-76 994.5,-76 "/>
<text text-anchor="start" x="796.5" y="-60.8" font-family="Times New Roman,serif" font-size="14.00">compute(images: np.ndarray, eps)</text>
</g>
<!-- PP2_Particle_Filter.utils.Descriptors.LBP&#45;&gt;PP2_Particle_Filter.utils.Descriptors.Descriptor -->
<g id="edge5" class="edge">
<title>PP2_Particle_Filter.utils.Descriptors.LBP&#45;&gt;PP2_Particle_Filter.utils.Descriptors.Descriptor</title>
<path fill="none" stroke="black" d="M851.37,-137.2C831.31,-155.71 805.76,-176.4 779.5,-190 718.05,-221.83 642.53,-241.46 583.15,-253.07"/>
<polygon fill="none" stroke="black" points="582.18,-249.69 573.02,-255 583.49,-256.56 582.18,-249.69"/>
</g>
</g>
</svg>
