<?xml version="1.0" encoding="UTF-8" standalone="no"?>
<!DOCTYPE svg PUBLIC "-//W3C//DTD SVG 1.1//EN"
 "http://www.w3.org/Graphics/SVG/1.1/DTD/svg11.dtd">
<!-- Generated by graphviz version 3.0.0 (20220226.1711)
 -->
<!-- Title: packages Pages: 1 -->
<svg width="2148pt" height="332pt"
 viewBox="0.00 0.00 2148.00 332.00" xmlns="http://www.w3.org/2000/svg" xmlns:xlink="http://www.w3.org/1999/xlink">
<g id="graph0" class="graph" transform="scale(1 1) rotate(0) translate(4 328)">
<title>packages</title>
<polygon fill="white" stroke="transparent" points="-4,4 -4,-328 2144,-328 2144,4 -4,4"/>
<!-- PP2_Particle_Filter -->
<g id="node1" class="node">
<title>PP2_Particle_Filter</title>
<polygon fill="none" stroke="black" points="1193.5,-36 1068.5,-36 1068.5,0 1193.5,0 1193.5,-36"/>
<text text-anchor="middle" x="1131" y="-14.3" font-family="Times New Roman,serif" font-size="14.00">PP2_Particle_Filter</text>
</g>
<!-- PP2_Particle_Filter.detect_init -->
<g id="node2" class="node">
<title>PP2_Particle_Filter.detect_init</title>
<polygon fill="none" stroke="black" points="771,-108 585,-108 585,-72 771,-72 771,-108"/>
<text text-anchor="middle" x="678" y="-86.3" font-family="Times New Roman,serif" font-size="14.00">PP2_Particle_Filter.detect_init</text>
</g>
<!-- PP2_Particle_Filter.models.experimental -->
<g id="node3" class="node">
<title>PP2_Particle_Filter.models.experimental</title>
<polygon fill="none" stroke="black" points="242,-180 0,-180 0,-144 242,-144 242,-180"/>
<text text-anchor="middle" x="121" y="-158.3" font-family="Times New Roman,serif" font-size="14.00">PP2_Particle_Filter.models.experimental</text>
</g>
<!-- PP2_Particle_Filter.detect_init&#45;&gt;PP2_Particle_Filter.models.experimental -->
<g id="edge1" class="edge">
<title>PP2_Particle_Filter.detect_init&#45;&gt;PP2_Particle_Filter.models.experimental</title>
<path fill="none" stroke="black" d="M584.69,-102.4C500.53,-112.73 373.06,-128.47 252.26,-143.84"/>
<polygon fill="black" stroke="black" points="242.09,-145.14 251.45,-139.41 247.05,-144.51 252.01,-143.87 252.01,-143.87 252.01,-143.87 247.05,-144.51 252.58,-148.34 242.09,-145.14 242.09,-145.14"/>
</g>
<!-- PP2_Particle_Filter.utils.datasets -->
<g id="node14" class="node">
<title>PP2_Particle_Filter.utils.datasets</title>
<polygon fill="none" stroke="black" points="460,-180 260,-180 260,-144 460,-144 460,-180"/>
<text text-anchor="middle" x="360" y="-158.3" font-family="Times New Roman,serif" font-size="14.00">PP2_Particle_Filter.utils.datasets</text>
</g>
<!-- PP2_Particle_Filter.detect_init&#45;&gt;PP2_Particle_Filter.utils.datasets -->
<g id="edge2" class="edge">
<title>PP2_Particle_Filter.detect_init&#45;&gt;PP2_Particle_Filter.utils.datasets</title>
<path fill="none" stroke="black" d="M600.62,-108.03C554.36,-118.22 495.46,-131.18 447.51,-141.74"/>
<polygon fill="black" stroke="black" points="437.46,-143.95 446.25,-137.41 442.34,-142.88 447.22,-141.8 447.22,-141.8 447.22,-141.8 442.34,-142.88 448.19,-146.19 437.46,-143.95 437.46,-143.95"/>
</g>
<!-- PP2_Particle_Filter.utils.general -->
<g id="node15" class="node">
<title>PP2_Particle_Filter.utils.general</title>
<polygon fill="none" stroke="black" points="672,-180 478,-180 478,-144 672,-144 672,-180"/>
<text text-anchor="middle" x="575" y="-158.3" font-family="Times New Roman,serif" font-size="14.00">PP2_Particle_Filter.utils.general</text>
</g>
<!-- PP2_Particle_Filter.detect_init&#45;&gt;PP2_Particle_Filter.utils.general -->
<g id="edge3" class="edge">
<title>PP2_Particle_Filter.detect_init&#45;&gt;PP2_Particle_Filter.utils.general</title>
<path fill="none" stroke="black" d="M652.8,-108.12C639.59,-117.11 623.21,-128.24 608.89,-137.97"/>
<polygon fill="black" stroke="black" points="600.29,-143.81 606.03,-134.47 604.43,-141 608.56,-138.19 608.56,-138.19 608.56,-138.19 604.43,-141 611.09,-141.91 600.29,-143.81 600.29,-143.81"/>
</g>
<!-- PP2_Particle_Filter.utils.plots -->
<g id="node16" class="node">
<title>PP2_Particle_Filter.utils.plots</title>
<polygon fill="none" stroke="black" points="872,-180 690,-180 690,-144 872,-144 872,-180"/>
<text text-anchor="middle" x="781" y="-158.3" font-family="Times New Roman,serif" font-size="14.00">PP2_Particle_Filter.utils.plots</text>
</g>
<!-- PP2_Particle_Filter.detect_init&#45;&gt;PP2_Particle_Filter.utils.plots -->
<g id="edge4" class="edge">
<title>PP2_Particle_Filter.detect_init&#45;&gt;PP2_Particle_Filter.utils.plots</title>
<path fill="none" stroke="black" d="M703.2,-108.12C716.41,-117.11 732.79,-128.24 747.11,-137.97"/>
<polygon fill="black" stroke="black" points="755.71,-143.81 744.91,-141.91 751.57,-141 747.44,-138.19 747.44,-138.19 747.44,-138.19 751.57,-141 749.97,-134.47 755.71,-143.81 755.71,-143.81"/>
</g>
<!-- PP2_Particle_Filter.utils.torch_utils -->
<g id="node17" class="node">
<title>PP2_Particle_Filter.utils.torch_utils</title>
<polygon fill="none" stroke="black" points="1104,-180 890,-180 890,-144 1104,-144 1104,-180"/>
<text text-anchor="middle" x="997" y="-158.3" font-family="Times New Roman,serif" font-size="14.00">PP2_Particle_Filter.utils.torch_utils</text>
</g>
<!-- PP2_Particle_Filter.detect_init&#45;&gt;PP2_Particle_Filter.utils.torch_utils -->
<g id="edge5" class="edge">
<title>PP2_Particle_Filter.detect_init&#45;&gt;PP2_Particle_Filter.utils.torch_utils</title>
<path fill="none" stroke="black" d="M755.63,-108.03C802.13,-118.24 861.36,-131.24 909.51,-141.8"/>
<polygon fill="black" stroke="black" points="919.3,-143.95 908.57,-146.2 914.42,-142.88 909.53,-141.81 909.53,-141.81 909.53,-141.81 914.42,-142.88 910.5,-137.41 919.3,-143.95 919.3,-143.95"/>
</g>
<!-- PP2_Particle_Filter.particle_filter -->
<g id="node4" class="node">
<title>PP2_Particle_Filter.particle_filter</title>
<polygon fill="none" stroke="black" points="1398.5,-108 1197.5,-108 1197.5,-72 1398.5,-72 1398.5,-108"/>
<text text-anchor="middle" x="1298" y="-86.3" font-family="Times New Roman,serif" font-size="14.00">PP2_Particle_Filter.particle_filter</text>
</g>
<!-- PP2_Particle_Filter.particle_filter.Particle -->
<g id="node5" class="node">
<title>PP2_Particle_Filter.particle_filter.Particle</title>
<polygon fill="none" stroke="black" points="1273,-252 1027,-252 1027,-216 1273,-216 1273,-252"/>
<text text-anchor="middle" x="1150" y="-230.3" font-family="Times New Roman,serif" font-size="14.00">PP2_Particle_Filter.particle_filter.Particle</text>
</g>
<!-- PP2_Particle_Filter.particle_filter&#45;&gt;PP2_Particle_Filter.particle_filter.Particle -->
<g id="edge6" class="edge">
<title>PP2_Particle_Filter.particle_filter&#45;&gt;PP2_Particle_Filter.particle_filter.Particle</title>
<path fill="none" stroke="black" d="M1199.14,-108.15C1180.29,-116 1162.79,-127.42 1151,-144 1138.38,-161.75 1139.35,-186.92 1142.77,-205.97"/>
<polygon fill="black" stroke="black" points="1144.86,-215.83 1138.39,-206.98 1143.82,-210.94 1142.79,-206.05 1142.79,-206.05 1142.79,-206.05 1143.82,-210.94 1147.2,-205.12 1144.86,-215.83 1144.86,-215.83"/>
</g>
<!-- PP2_Particle_Filter.particle_filter.ParticleFilter -->
<g id="node6" class="node">
<title>PP2_Particle_Filter.particle_filter.ParticleFilter</title>
<polygon fill="none" stroke="black" points="1435.5,-180 1160.5,-180 1160.5,-144 1435.5,-144 1435.5,-180"/>
<text text-anchor="middle" x="1298" y="-158.3" font-family="Times New Roman,serif" font-size="14.00">PP2_Particle_Filter.particle_filter.ParticleFilter</text>
</g>
<!-- PP2_Particle_Filter.particle_filter&#45;&gt;PP2_Particle_Filter.particle_filter.ParticleFilter -->
<g id="edge7" class="edge">
<title>PP2_Particle_Filter.particle_filter&#45;&gt;PP2_Particle_Filter.particle_filter.ParticleFilter</title>
<path fill="none" stroke="black" d="M1298,-108.3C1298,-116.02 1298,-125.29 1298,-133.89"/>
<polygon fill="black" stroke="black" points="1298,-143.9 1293.5,-133.9 1298,-138.9 1298,-133.9 1298,-133.9 1298,-133.9 1298,-138.9 1302.5,-133.9 1298,-143.9 1298,-143.9"/>
</g>
<!-- PP2_Particle_Filter.particle_filter.ResampleMethods -->
<g id="node8" class="node">
<title>PP2_Particle_Filter.particle_filter.ResampleMethods</title>
<polygon fill="none" stroke="black" points="1609.5,-252 1300.5,-252 1300.5,-216 1609.5,-216 1609.5,-252"/>
<text text-anchor="middle" x="1455" y="-230.3" font-family="Times New Roman,serif" font-size="14.00">PP2_Particle_Filter.particle_filter.ResampleMethods</text>
</g>
<!-- PP2_Particle_Filter.particle_filter&#45;&gt;PP2_Particle_Filter.particle_filter.ResampleMethods -->
<g id="edge8" class="edge">
<title>PP2_Particle_Filter.particle_filter&#45;&gt;PP2_Particle_Filter.particle_filter.ResampleMethods</title>
<path fill="none" stroke="black" d="M1391.83,-108.08C1411.74,-115.91 1430.72,-127.34 1444,-144 1457.75,-161.26 1459.65,-186.69 1458.6,-205.96"/>
<polygon fill="black" stroke="black" points="1457.77,-215.93 1454.11,-205.59 1458.19,-210.95 1458.6,-205.97 1458.6,-205.97 1458.6,-205.97 1458.19,-210.95 1463.08,-206.34 1457.77,-215.93 1457.77,-215.93"/>
</g>
<!-- PP2_Particle_Filter.particle_filter.ParticleTemplate -->
<g id="node7" class="node">
<title>PP2_Particle_Filter.particle_filter.ParticleTemplate</title>
<polygon fill="none" stroke="black" points="1299,-324 1001,-324 1001,-288 1299,-288 1299,-324"/>
<text text-anchor="middle" x="1150" y="-302.3" font-family="Times New Roman,serif" font-size="14.00">PP2_Particle_Filter.particle_filter.ParticleTemplate</text>
</g>
<!-- PP2_Particle_Filter.particle_filter.Particle&#45;&gt;PP2_Particle_Filter.particle_filter.ParticleTemplate -->
<g id="edge9" class="edge">
<title>PP2_Particle_Filter.particle_filter.Particle&#45;&gt;PP2_Particle_Filter.particle_filter.ParticleTemplate</title>
<path fill="none" stroke="black" d="M1150,-252.3C1150,-260.02 1150,-269.29 1150,-277.89"/>
<polygon fill="black" stroke="black" points="1150,-287.9 1145.5,-277.9 1150,-282.9 1150,-277.9 1150,-277.9 1150,-277.9 1150,-282.9 1154.5,-277.9 1150,-287.9 1150,-287.9"/>
</g>
<!-- PP2_Particle_Filter.particle_filter.ParticleFilter&#45;&gt;PP2_Particle_Filter.particle_filter.Particle -->
<g id="edge10" class="edge">
<title>PP2_Particle_Filter.particle_filter.ParticleFilter&#45;&gt;PP2_Particle_Filter.particle_filter.Particle</title>
<path fill="none" stroke="black" d="M1261.8,-180.12C1241.74,-189.61 1216.63,-201.49 1195.29,-211.58"/>
<polygon fill="black" stroke="black" points="1186.09,-215.93 1193.2,-207.59 1190.61,-213.79 1195.13,-211.66 1195.13,-211.66 1195.13,-211.66 1190.61,-213.79 1197.05,-215.72 1186.09,-215.93 1186.09,-215.93"/>
</g>
<!-- PP2_Particle_Filter.particle_filter.ParticleFilter&#45;&gt;PP2_Particle_Filter.particle_filter.ResampleMethods -->
<g id="edge11" class="edge">
<title>PP2_Particle_Filter.particle_filter.ParticleFilter&#45;&gt;PP2_Particle_Filter.particle_filter.ResampleMethods</title>
<path fill="none" stroke="black" d="M1336.41,-180.12C1357.87,-189.69 1384.8,-201.7 1407.57,-211.85"/>
<polygon fill="black" stroke="black" points="1416.72,-215.93 1405.75,-215.97 1412.15,-213.9 1407.58,-211.86 1407.58,-211.86 1407.58,-211.86 1412.15,-213.9 1409.42,-207.75 1416.72,-215.93 1416.72,-215.93"/>
</g>
<!-- PP2_Particle_Filter.tracking -->
<g id="node9" class="node">
<title>PP2_Particle_Filter.tracking</title>
<polygon fill="none" stroke="black" points="1384.5,-36 1211.5,-36 1211.5,0 1384.5,0 1384.5,-36"/>
<text text-anchor="middle" x="1298" y="-14.3" font-family="Times New Roman,serif" font-size="14.00">PP2_Particle_Filter.tracking</text>
</g>
<!-- PP2_Particle_Filter.tracking&#45;&gt;PP2_Particle_Filter.detect_init -->
<g id="edge12" class="edge">
<title>PP2_Particle_Filter.tracking&#45;&gt;PP2_Particle_Filter.detect_init</title>
<path fill="none" stroke="black" d="M1211.44,-34.63C1208.26,-35.11 1205.1,-35.57 1202,-36 1056.36,-56.23 886.92,-71.96 781.05,-80.86"/>
<polygon fill="black" stroke="black" points="771.01,-81.7 780.6,-76.38 775.99,-81.28 780.98,-80.86 780.98,-80.86 780.98,-80.86 775.99,-81.28 781.35,-85.35 771.01,-81.7 771.01,-81.7"/>
</g>
<!-- PP2_Particle_Filter.tracking&#45;&gt;PP2_Particle_Filter.particle_filter -->
<g id="edge13" class="edge">
<title>PP2_Particle_Filter.tracking&#45;&gt;PP2_Particle_Filter.particle_filter</title>
<path fill="none" stroke="black" d="M1298,-36.3C1298,-44.02 1298,-53.29 1298,-61.89"/>
<polygon fill="black" stroke="black" points="1298,-71.9 1293.5,-61.9 1298,-66.9 1298,-61.9 1298,-61.9 1298,-61.9 1298,-66.9 1302.5,-61.9 1298,-71.9 1298,-71.9"/>
</g>
<!-- PP2_Particle_Filter.utils -->
<g id="node10" class="node">
<title>PP2_Particle_Filter.utils</title>
<polygon fill="none" stroke="black" points="1792.5,-108 1641.5,-108 1641.5,-72 1792.5,-72 1792.5,-108"/>
<text text-anchor="middle" x="1717" y="-86.3" font-family="Times New Roman,serif" font-size="14.00">PP2_Particle_Filter.utils</text>
</g>
<!-- PP2_Particle_Filter.tracking&#45;&gt;PP2_Particle_Filter.utils -->
<g id="edge14" class="edge">
<title>PP2_Particle_Filter.tracking&#45;&gt;PP2_Particle_Filter.utils</title>
<path fill="none" stroke="black" d="M1384.56,-33.46C1456.89,-45.54 1559.46,-62.68 1631.48,-74.71"/>
<polygon fill="black" stroke="black" points="1641.44,-76.38 1630.83,-79.17 1636.51,-75.55 1631.58,-74.73 1631.58,-74.73 1631.58,-74.73 1636.51,-75.55 1632.32,-70.29 1641.44,-76.38 1641.44,-76.38"/>
</g>
<!-- PP2_Particle_Filter.utils.Descriptors -->
<g id="node11" class="node">
<title>PP2_Particle_Filter.utils.Descriptors</title>
<polygon fill="none" stroke="black" points="1712,-180 1492,-180 1492,-144 1712,-144 1712,-180"/>
<text text-anchor="middle" x="1602" y="-158.3" font-family="Times New Roman,serif" font-size="14.00">PP2_Particle_Filter.utils.Descriptors</text>
</g>
<!-- PP2_Particle_Filter.utils&#45;&gt;PP2_Particle_Filter.utils.Descriptors -->
<g id="edge15" class="edge">
<title>PP2_Particle_Filter.utils&#45;&gt;PP2_Particle_Filter.utils.Descriptors</title>
<path fill="none" stroke="black" d="M1688.87,-108.12C1673.83,-117.28 1655.13,-128.66 1638.94,-138.52"/>
<polygon fill="black" stroke="black" points="1630.24,-143.81 1636.44,-134.77 1634.51,-141.21 1638.78,-138.61 1638.78,-138.61 1638.78,-138.61 1634.51,-141.21 1641.12,-142.45 1630.24,-143.81 1630.24,-143.81"/>
</g>
<!-- PP2_Particle_Filter.utils.Similarity -->
<g id="node12" class="node">
<title>PP2_Particle_Filter.utils.Similarity</title>
<polygon fill="none" stroke="black" points="1936,-180 1730,-180 1730,-144 1936,-144 1936,-180"/>
<text text-anchor="middle" x="1833" y="-158.3" font-family="Times New Roman,serif" font-size="14.00">PP2_Particle_Filter.utils.Similarity</text>
</g>
<!-- PP2_Particle_Filter.utils&#45;&gt;PP2_Particle_Filter.utils.Similarity -->
<g id="edge16" class="edge">
<title>PP2_Particle_Filter.utils&#45;&gt;PP2_Particle_Filter.utils.Similarity</title>
<path fill="none" stroke="black" d="M1745.38,-108.12C1760.54,-117.28 1779.41,-128.66 1795.74,-138.52"/>
<polygon fill="black" stroke="black" points="1804.51,-143.81 1793.63,-142.5 1800.23,-141.23 1795.95,-138.64 1795.95,-138.64 1795.95,-138.64 1800.23,-141.23 1798.28,-134.79 1804.51,-143.81 1804.51,-143.81"/>
</g>
<!-- PP2_Particle_Filter.utils.Slicer -->
<g id="node13" class="node">
<title>PP2_Particle_Filter.utils.Slicer</title>
<polygon fill="none" stroke="black" points="2140,-180 1954,-180 1954,-144 2140,-144 2140,-180"/>
<text text-anchor="middle" x="2047" y="-158.3" font-family="Times New Roman,serif" font-size="14.00">PP2_Particle_Filter.utils.Slicer</text>
</g>
<!-- PP2_Particle_Filter.utils&#45;&gt;PP2_Particle_Filter.utils.Slicer -->
<g id="edge17" class="edge">
<title>PP2_Particle_Filter.utils&#45;&gt;PP2_Particle_Filter.utils.Slicer</title>
<path fill="none" stroke="black" d="M1792.71,-107.06C1841.6,-117.43 1905.46,-130.98 1956.96,-141.9"/>
<polygon fill="black" stroke="black" points="1966.75,-143.98 1956.03,-146.3 1961.86,-142.94 1956.97,-141.9 1956.97,-141.9 1956.97,-141.9 1961.86,-142.94 1957.9,-137.5 1966.75,-143.98 1966.75,-143.98"/>
</g>
</g>
</svg>
