<?xml version="1.0" encoding="UTF-8" standalone="no"?>
<!DOCTYPE svg PUBLIC "-//W3C//DTD SVG 1.1//EN"
 "http://www.w3.org/Graphics/SVG/1.1/DTD/svg11.dtd">
<!-- Generated by graphviz version 3.0.0 (20220226.1711)
 -->
<!-- Title: particlefilter Pages: 1 -->
<svg width="5897pt" height="1133pt"
 viewBox="0.00 0.00 5897.00 1133.00" xmlns="http://www.w3.org/2000/svg" xmlns:xlink="http://www.w3.org/1999/xlink">
<g id="graph0" class="graph" transform="scale(1 1) rotate(0) translate(4 1129)">
<title>particlefilter</title>
<polygon fill="white" stroke="transparent" points="-4,4 -4,-1129 5893,-1129 5893,4 -4,4"/>
<!-- PP2_Particle_Filter.particle_filter.ParticleFilter.ParticleFilter -->
<g id="node1" class="node">
<title>PP2_Particle_Filter.particle_filter.ParticleFilter.ParticleFilter</title>
<polygon fill="none" stroke="black" points="3292,-605.5 3292,-1124.5 3603,-1124.5 3603,-605.5 3292,-605.5"/>
<text text-anchor="middle" x="3447.5" y="-1109.3" font-family="Times New Roman,serif" font-size="14.00">ParticleFilter</text>
<polyline fill="none" stroke="black" points="3292,-1101.5 3603,-1101.5 "/>
<text text-anchor="start" x="3300" y="-1086.3" font-family="Times New Roman,serif" font-size="14.00">N : int</text>
<text text-anchor="start" x="3300" y="-1071.3" font-family="Times New Roman,serif" font-size="14.00">Q_motion : Optional[np.ndarray], ndarray</text>
<text text-anchor="start" x="3300" y="-1056.3" font-family="Times New Roman,serif" font-size="14.00">R : ndarray, Optional[np.ndarray]</text>
<text text-anchor="start" x="3300" y="-1041.3" font-family="Times New Roman,serif" font-size="14.00">alpha : float</text>
<text text-anchor="start" x="3300" y="-1026.3" font-family="Times New Roman,serif" font-size="14.00">descriptor</text>
<text text-anchor="start" x="3300" y="-1011.3" font-family="Times New Roman,serif" font-size="14.00">frame_size : tuple</text>
<text text-anchor="start" x="3300" y="-996.3" font-family="Times New Roman,serif" font-size="14.00">init_pos : ndarray</text>
<text text-anchor="start" x="3300" y="-981.3" font-family="Times New Roman,serif" font-size="14.00">mu : tuple</text>
<text text-anchor="start" x="3300" y="-966.3" font-family="Times New Roman,serif" font-size="14.00">particle_struct</text>
<text text-anchor="start" x="3300" y="-951.3" font-family="Times New Roman,serif" font-size="14.00">particles : ndarray</text>
<text text-anchor="start" x="3300" y="-936.3" font-family="Times New Roman,serif" font-size="14.00">prev_frame : ndarray</text>
<text text-anchor="start" x="3300" y="-921.3" font-family="Times New Roman,serif" font-size="14.00">prev_particles : ndarray</text>
<text text-anchor="start" x="3300" y="-906.3" font-family="Times New Roman,serif" font-size="14.00">prev_patch_descriptor</text>
<text text-anchor="start" x="3300" y="-891.3" font-family="Times New Roman,serif" font-size="14.00">ranges</text>
<text text-anchor="start" x="3300" y="-876.3" font-family="Times New Roman,serif" font-size="14.00">ratio</text>
<text text-anchor="start" x="3300" y="-861.3" font-family="Times New Roman,serif" font-size="14.00">resample_method</text>
<text text-anchor="start" x="3300" y="-846.3" font-family="Times New Roman,serif" font-size="14.00">rng</text>
<text text-anchor="start" x="3300" y="-831.3" font-family="Times New Roman,serif" font-size="14.00">search_area</text>
<text text-anchor="start" x="3300" y="-816.3" font-family="Times New Roman,serif" font-size="14.00">seed : Optional[int]</text>
<text text-anchor="start" x="3300" y="-801.3" font-family="Times New Roman,serif" font-size="14.00">sigma : tuple</text>
<text text-anchor="start" x="3300" y="-786.3" font-family="Times New Roman,serif" font-size="14.00">similarity</text>
<text text-anchor="start" x="3300" y="-771.3" font-family="Times New Roman,serif" font-size="14.00">slicer</text>
<text text-anchor="start" x="3300" y="-756.3" font-family="Times New Roman,serif" font-size="14.00">state_dim : int</text>
<text text-anchor="start" x="3300" y="-741.3" font-family="Times New Roman,serif" font-size="14.00">template_patch</text>
<text text-anchor="start" x="3300" y="-726.3" font-family="Times New Roman,serif" font-size="14.00">track_dim : int</text>
<text text-anchor="start" x="3300" y="-711.3" font-family="Times New Roman,serif" font-size="14.00">weights</text>
<polyline fill="none" stroke="black" points="3292,-703.5 3603,-703.5 "/>
<text text-anchor="start" x="3300" y="-688.3" font-family="Times New Roman,serif" font-size="14.00">estimate(): None</text>
<text text-anchor="start" x="3300" y="-673.3" font-family="Times New Roman,serif" font-size="14.00">forward(z: np.ndarray, dt: float, fraction: float): None</text>
<text text-anchor="start" x="3300" y="-658.3" font-family="Times New Roman,serif" font-size="14.00">neff(): float</text>
<text text-anchor="start" x="3300" y="-643.3" font-family="Times New Roman,serif" font-size="14.00">predict(dt: Optional[float]): None</text>
<text text-anchor="start" x="3300" y="-628.3" font-family="Times New Roman,serif" font-size="14.00">resample(fraction: Optional[float]): None</text>
<text text-anchor="start" x="3300" y="-613.3" font-family="Times New Roman,serif" font-size="14.00">update(z: np.ndarray): None</text>
</g>
<!-- PP2_Particle_Filter.particle_filter.ParticleTemplate.Particle -->
<g id="node2" class="node">
<title>PP2_Particle_Filter.particle_filter.ParticleTemplate.Particle</title>
<polygon fill="none" stroke="black" points="1264,-227.5 1264,-356.5 2031,-356.5 2031,-227.5 1264,-227.5"/>
<text text-anchor="middle" x="1647.5" y="-341.3" font-family="Times New Roman,serif" font-size="14.00">Particle</text>
<polyline fill="none" stroke="black" points="1264,-333.5 2031,-333.5 "/>
<text text-anchor="start" x="1272" y="-318.3" font-family="Times New Roman,serif" font-size="14.00">particle_dim : int</text>
<text text-anchor="start" x="1272" y="-303.3" font-family="Times New Roman,serif" font-size="14.00">rng</text>
<polyline fill="none" stroke="black" points="1264,-295.5 2031,-295.5 "/>
<text text-anchor="start" x="1272" y="-280.3" font-family="Times New Roman,serif" font-size="14.00">create_gaussian_particles(N: int, track_dim: int, init_pos: np.ndarray, std: np.ndarray): np.ndarray</text>
<text text-anchor="start" x="1272" y="-265.3" font-family="Times New Roman,serif" font-size="14.00">create_uniform_particles(N: int, track_dim: int, ranges: np.ndarray): np.ndarray</text>
<text text-anchor="start" x="1272" y="-250.3" font-family="Times New Roman,serif" font-size="14.00">measurement_model(coeff_sim: np.ndarray, R: np.ndarray): np.ndarray</text>
<text text-anchor="start" x="1272" y="-235.3" font-family="Times New Roman,serif" font-size="14.00">motion_model(particles: np.ndarray, Q_model: np.ndarray, prev_particles: np.ndarray, frame_size: Tuple[int, int], dt: float): np.ndarray</text>
</g>
<!-- PP2_Particle_Filter.particle_filter.ParticleTemplate.Particle&#45;&gt;PP2_Particle_Filter.particle_filter.ParticleFilter.ParticleFilter -->
<g id="edge2" class="edge">
<title>PP2_Particle_Filter.particle_filter.ParticleTemplate.Particle&#45;&gt;PP2_Particle_Filter.particle_filter.ParticleFilter.ParticleFilter</title>
<path fill="none" stroke="black" d="M1841.02,-356.55C2003.74,-409.81 2242.59,-487.58 2451.5,-554 2742.34,-646.46 3081.87,-751.53 3279.95,-812.53"/>
<polygon fill="black" stroke="black" points="3280.15,-812.59 3287.06,-810.54 3291.62,-816.13 3284.71,-818.18 3280.15,-812.59"/>
<text text-anchor="middle" x="2491.5" y="-485.3" font-family="Times New Roman,serif" font-size="14.00" fill="red">particle_struct</text>
</g>
<!-- PP2_Particle_Filter.particle_filter.Particle.PredPosParticle2DBbox -->
<g id="node3" class="node">
<title>PP2_Particle_Filter.particle_filter.Particle.PredPosParticle2DBbox</title>
<polygon fill="none" stroke="black" points="0,-0.5 0,-159.5 1091,-159.5 1091,-0.5 0,-0.5"/>
<text text-anchor="middle" x="545.5" y="-144.3" font-family="Times New Roman,serif" font-size="14.00">PredPosParticle2DBbox</text>
<polyline fill="none" stroke="black" points="0,-136.5 1091,-136.5 "/>
<text text-anchor="start" x="8" y="-121.3" font-family="Times New Roman,serif" font-size="14.00">particle_dim : int</text>
<text text-anchor="start" x="8" y="-106.3" font-family="Times New Roman,serif" font-size="14.00">ratio</text>
<text text-anchor="start" x="8" y="-91.3" font-family="Times New Roman,serif" font-size="14.00">rng</text>
<polyline fill="none" stroke="black" points="0,-83.5 1091,-83.5 "/>
<text text-anchor="start" x="8" y="-68.3" font-family="Times New Roman,serif" font-size="14.00">compute_gamma(N: int, track_dim: int): np.ndarray</text>
<text text-anchor="start" x="8" y="-53.3" font-family="Times New Roman,serif" font-size="14.00">create_gaussian_particles(N: int, track_dim: int, init_pos: np.ndarray, std: np.ndarray): np.ndarray</text>
<text text-anchor="start" x="8" y="-38.3" font-family="Times New Roman,serif" font-size="14.00">create_uniform_particles(N: int, track_dim: int, ranges: np.ndarray): np.ndarray</text>
<text text-anchor="start" x="8" y="-23.3" font-family="Times New Roman,serif" font-size="14.00">measurement_model(coeff_sim: np.ndarray, particles: np.ndarray, template_particle: np.ndarray, R: np.ndarray): np.ndarray</text>
<text text-anchor="start" x="8" y="-8.3" font-family="Times New Roman,serif" font-size="14.00">motion_model(particles: np.ndarray, Q_model: np.ndarray, prev_particles: np.ndarray, template_particle: np.ndarray, search_area: Tuple[int, int], frame_size: Tuple[int, int], dt: float): np.ndarray</text>
</g>
<!-- PP2_Particle_Filter.particle_filter.Particle.PredPosParticle2DBbox&#45;&gt;PP2_Particle_Filter.particle_filter.ParticleTemplate.Particle -->
<g id="edge8" class="edge">
<title>PP2_Particle_Filter.particle_filter.Particle.PredPosParticle2DBbox&#45;&gt;PP2_Particle_Filter.particle_filter.ParticleTemplate.Particle</title>
<path fill="none" stroke="black" d="M957.8,-159.57C1071.86,-181.3 1194.4,-204.66 1304.09,-225.56"/>
<polygon fill="none" stroke="black" points="1303.5,-229.01 1313.98,-227.44 1304.82,-222.13 1303.5,-229.01"/>
</g>
<!-- PP2_Particle_Filter.particle_filter.Particle.ConstAccelParticle2DBbox -->
<g id="node4" class="node">
<title>PP2_Particle_Filter.particle_filter.Particle.ConstAccelParticle2DBbox</title>
<polygon fill="none" stroke="black" points="1109.5,-8 1109.5,-152 2185.5,-152 2185.5,-8 1109.5,-8"/>
<text text-anchor="middle" x="1647.5" y="-136.8" font-family="Times New Roman,serif" font-size="14.00">ConstAccelParticle2DBbox</text>
<polyline fill="none" stroke="black" points="1109.5,-129 2185.5,-129 "/>
<text text-anchor="start" x="1117.5" y="-113.8" font-family="Times New Roman,serif" font-size="14.00">particle_dim : int</text>
<text text-anchor="start" x="1117.5" y="-98.8" font-family="Times New Roman,serif" font-size="14.00">rng</text>
<polyline fill="none" stroke="black" points="1109.5,-91 2185.5,-91 "/>
<text text-anchor="start" x="1117.5" y="-75.8" font-family="Times New Roman,serif" font-size="14.00">compute_gamma(N: int, track_dim: int): np.ndarray</text>
<text text-anchor="start" x="1117.5" y="-60.8" font-family="Times New Roman,serif" font-size="14.00">create_gaussian_particles(N: int, track_dim: int, init_pos: np.ndarray, std: np.ndarray): np.ndarray</text>
<text text-anchor="start" x="1117.5" y="-45.8" font-family="Times New Roman,serif" font-size="14.00">create_uniform_particles(N: int, track_dim: int, ranges: np.ndarray): np.ndarray</text>
<text text-anchor="start" x="1117.5" y="-30.8" font-family="Times New Roman,serif" font-size="14.00">measurement_model(coeff_sim: np.ndarray, particles: np.ndarray, template_particle: np.ndarray, R: np.ndarray): np.ndarray</text>
<text text-anchor="start" x="1117.5" y="-15.8" font-family="Times New Roman,serif" font-size="14.00">motion_model(particles: np.ndarray, Q_model: np.ndarray, prev_particles: np.ndarray, template_particle: np.ndarray, search_area: np.ndarray, frame_size: Tuple[int, int], dt: float): np.ndarray</text>
</g>
<!-- PP2_Particle_Filter.particle_filter.Particle.ConstAccelParticle2DBbox&#45;&gt;PP2_Particle_Filter.particle_filter.ParticleTemplate.Particle -->
<g id="edge6" class="edge">
<title>PP2_Particle_Filter.particle_filter.Particle.ConstAccelParticle2DBbox&#45;&gt;PP2_Particle_Filter.particle_filter.ParticleTemplate.Particle</title>
<path fill="none" stroke="black" d="M1647.5,-152.1C1647.5,-173.06 1647.5,-196.04 1647.5,-217.17"/>
<polygon fill="none" stroke="black" points="1644,-217.38 1647.5,-227.38 1651,-217.38 1644,-217.38"/>
</g>
<!-- PP2_Particle_Filter.particle_filter.Particle.ConstAccelParticle2DFixBbox -->
<g id="node5" class="node">
<title>PP2_Particle_Filter.particle_filter.Particle.ConstAccelParticle2DFixBbox</title>
<polygon fill="none" stroke="black" points="2204,-15.5 2204,-144.5 3295,-144.5 3295,-15.5 2204,-15.5"/>
<text text-anchor="middle" x="2749.5" y="-129.3" font-family="Times New Roman,serif" font-size="14.00">ConstAccelParticle2DFixBbox</text>
<polyline fill="none" stroke="black" points="2204,-121.5 3295,-121.5 "/>
<text text-anchor="start" x="2212" y="-106.3" font-family="Times New Roman,serif" font-size="14.00">particle_dim : int</text>
<text text-anchor="start" x="2212" y="-91.3" font-family="Times New Roman,serif" font-size="14.00">rng</text>
<polyline fill="none" stroke="black" points="2204,-83.5 3295,-83.5 "/>
<text text-anchor="start" x="2212" y="-68.3" font-family="Times New Roman,serif" font-size="14.00">create_gaussian_particles(N: int, track_dim: int, init_pos: np.ndarray, std: np.ndarray): np.ndarray</text>
<text text-anchor="start" x="2212" y="-53.3" font-family="Times New Roman,serif" font-size="14.00">create_uniform_particles(N: int, track_dim: int, ranges: np.ndarray): np.ndarray</text>
<text text-anchor="start" x="2212" y="-38.3" font-family="Times New Roman,serif" font-size="14.00">measurement_model(coeff_sim: np.ndarray, particles: np.ndarray, template_particle: np.ndarray, R: np.ndarray): np.ndarray</text>
<text text-anchor="start" x="2212" y="-23.3" font-family="Times New Roman,serif" font-size="14.00">motion_model(particles: np.ndarray, Q_model: np.ndarray, prev_particles: np.ndarray, template_particle: np.ndarray, search_area: Tuple[int, int], frame_size: Tuple[int, int], dt: float): np.ndarray</text>
</g>
<!-- PP2_Particle_Filter.particle_filter.Particle.ConstAccelParticle2DFixBbox&#45;&gt;PP2_Particle_Filter.particle_filter.ParticleTemplate.Particle -->
<g id="edge7" class="edge">
<title>PP2_Particle_Filter.particle_filter.Particle.ConstAccelParticle2DFixBbox&#45;&gt;PP2_Particle_Filter.particle_filter.ParticleTemplate.Particle</title>
<path fill="none" stroke="black" d="M2328.56,-144.54C2233.27,-160.37 2132.71,-178.24 2039.5,-197 1997.56,-205.44 1953.3,-215.21 1910.22,-225.19"/>
<polygon fill="none" stroke="black" points="1909.41,-221.79 1900.47,-227.46 1911,-228.61 1909.41,-221.79"/>
</g>
<!-- PP2_Particle_Filter.utils.Descriptors.Descriptor -->
<g id="node6" class="node">
<title>PP2_Particle_Filter.utils.Descriptors.Descriptor</title>
<polygon fill="none" stroke="black" points="2541,-446.5 2541,-531.5 2720,-531.5 2720,-446.5 2541,-446.5"/>
<text text-anchor="middle" x="2630.5" y="-516.3" font-family="Times New Roman,serif" font-size="14.00">Descriptor</text>
<polyline fill="none" stroke="black" points="2541,-508.5 2720,-508.5 "/>
<polyline fill="none" stroke="black" points="2541,-484.5 2720,-484.5 "/>
<text text-anchor="start" x="2549" y="-469.3" font-family="Times New Roman,serif" font-size="14.00">compute(images: np.ndarray)</text>
<text text-anchor="start" x="2549" y="-454.3" font-family="Times New Roman,serif" font-size="14.00">update(args)</text>
</g>
<!-- PP2_Particle_Filter.utils.Descriptors.Descriptor&#45;&gt;PP2_Particle_Filter.particle_filter.ParticleFilter.ParticleFilter -->
<g id="edge3" class="edge">
<title>PP2_Particle_Filter.utils.Descriptors.Descriptor&#45;&gt;PP2_Particle_Filter.particle_filter.ParticleFilter.ParticleFilter</title>
<path fill="none" stroke="black" d="M2720.27,-531.09C2854.83,-592.69 3111.1,-710.01 3280.66,-787.62"/>
<polygon fill="none" stroke="black" points="3280.78,-787.68 3287.91,-786.54 3291.7,-792.68 3284.58,-793.82 3280.78,-787.68"/>
<text text-anchor="middle" x="2857.5" y="-575.8" font-family="Times New Roman,serif" font-size="14.00" fill="red">descriptor</text>
</g>
<!-- PP2_Particle_Filter.utils.Descriptors.HOG -->
<g id="node7" class="node">
<title>PP2_Particle_Filter.utils.Descriptors.HOG</title>
<polygon fill="none" stroke="black" points="2049,-197.5 2049,-386.5 2228,-386.5 2228,-197.5 2049,-197.5"/>
<text text-anchor="middle" x="2138.5" y="-371.3" font-family="Times New Roman,serif" font-size="14.00">HOG</text>
<polyline fill="none" stroke="black" points="2049,-363.5 2228,-363.5 "/>
<text text-anchor="start" x="2057" y="-348.3" font-family="Times New Roman,serif" font-size="14.00">blockSize : tuple</text>
<text text-anchor="start" x="2057" y="-333.3" font-family="Times New Roman,serif" font-size="14.00">blockStride : tuple</text>
<text text-anchor="start" x="2057" y="-318.3" font-family="Times New Roman,serif" font-size="14.00">cellSize : tuple</text>
<text text-anchor="start" x="2057" y="-303.3" font-family="Times New Roman,serif" font-size="14.00">freezeSize : bool</text>
<text text-anchor="start" x="2057" y="-288.3" font-family="Times New Roman,serif" font-size="14.00">hog</text>
<text text-anchor="start" x="2057" y="-273.3" font-family="Times New Roman,serif" font-size="14.00">nbins : int</text>
<text text-anchor="start" x="2057" y="-258.3" font-family="Times New Roman,serif" font-size="14.00">winSize : tuple</text>
<polyline fill="none" stroke="black" points="2049,-250.5 2228,-250.5 "/>
<text text-anchor="start" x="2057" y="-235.3" font-family="Times New Roman,serif" font-size="14.00">compute(images: np.ndarray)</text>
<text text-anchor="start" x="2057" y="-220.3" font-family="Times New Roman,serif" font-size="14.00">expectedF()</text>
<text text-anchor="start" x="2057" y="-205.3" font-family="Times New Roman,serif" font-size="14.00">update(winSize)</text>
</g>
<!-- PP2_Particle_Filter.utils.Descriptors.HOG&#45;&gt;PP2_Particle_Filter.utils.Descriptors.Descriptor -->
<g id="edge9" class="edge">
<title>PP2_Particle_Filter.utils.Descriptors.HOG&#45;&gt;PP2_Particle_Filter.utils.Descriptors.Descriptor</title>
<path fill="none" stroke="black" d="M2228.22,-382.08C2230.96,-383.81 2233.72,-385.45 2236.5,-387 2328.85,-438.39 2447.89,-464.21 2530.84,-476.8"/>
<polygon fill="none" stroke="black" points="2530.37,-480.26 2540.77,-478.27 2531.39,-473.34 2530.37,-480.26"/>
</g>
<!-- PP2_Particle_Filter.utils.Descriptors.HOGCASCADE -->
<g id="node8" class="node">
<title>PP2_Particle_Filter.utils.Descriptors.HOGCASCADE</title>
<polygon fill="none" stroke="black" points="2246,-197.5 2246,-386.5 2425,-386.5 2425,-197.5 2246,-197.5"/>
<text text-anchor="middle" x="2335.5" y="-371.3" font-family="Times New Roman,serif" font-size="14.00">HOGCASCADE</text>
<polyline fill="none" stroke="black" points="2246,-363.5 2425,-363.5 "/>
<text text-anchor="start" x="2254" y="-348.3" font-family="Times New Roman,serif" font-size="14.00">blockSize : tuple</text>
<text text-anchor="start" x="2254" y="-333.3" font-family="Times New Roman,serif" font-size="14.00">blockStride : tuple</text>
<text text-anchor="start" x="2254" y="-318.3" font-family="Times New Roman,serif" font-size="14.00">cellSize : tuple</text>
<text text-anchor="start" x="2254" y="-303.3" font-family="Times New Roman,serif" font-size="14.00">freezeSize : bool</text>
<text text-anchor="start" x="2254" y="-288.3" font-family="Times New Roman,serif" font-size="14.00">hog</text>
<text text-anchor="start" x="2254" y="-273.3" font-family="Times New Roman,serif" font-size="14.00">nbcascade</text>
<text text-anchor="start" x="2254" y="-258.3" font-family="Times New Roman,serif" font-size="14.00">nbins : int</text>
<text text-anchor="start" x="2254" y="-243.3" font-family="Times New Roman,serif" font-size="14.00">winSize : tuple</text>
<polyline fill="none" stroke="black" points="2246,-235.5 2425,-235.5 "/>
<text text-anchor="start" x="2254" y="-220.3" font-family="Times New Roman,serif" font-size="14.00">compute(images: np.ndarray)</text>
<text text-anchor="start" x="2254" y="-205.3" font-family="Times New Roman,serif" font-size="14.00">update(winSize)</text>
</g>
<!-- PP2_Particle_Filter.utils.Descriptors.HOGCASCADE&#45;&gt;PP2_Particle_Filter.utils.Descriptors.Descriptor -->
<g id="edge10" class="edge">
<title>PP2_Particle_Filter.utils.Descriptors.HOGCASCADE&#45;&gt;PP2_Particle_Filter.utils.Descriptors.Descriptor</title>
<path fill="none" stroke="black" d="M2425.16,-380.83C2427.93,-382.96 2430.72,-385.02 2433.5,-387 2463.68,-408.51 2499.08,-428.15 2531.48,-444.27"/>
<polygon fill="none" stroke="black" points="2530.02,-447.45 2540.53,-448.72 2533.11,-441.17 2530.02,-447.45"/>
</g>
<!-- PP2_Particle_Filter.utils.Descriptors.HOGCASCADELBP -->
<g id="node9" class="node">
<title>PP2_Particle_Filter.utils.Descriptors.HOGCASCADELBP</title>
<polygon fill="none" stroke="black" points="2443,-205 2443,-379 2622,-379 2622,-205 2443,-205"/>
<text text-anchor="middle" x="2532.5" y="-363.8" font-family="Times New Roman,serif" font-size="14.00">HOGCASCADELBP</text>
<polyline fill="none" stroke="black" points="2443,-356 2622,-356 "/>
<text text-anchor="start" x="2451" y="-340.8" font-family="Times New Roman,serif" font-size="14.00">blockSize : tuple</text>
<text text-anchor="start" x="2451" y="-325.8" font-family="Times New Roman,serif" font-size="14.00">blockStride : tuple</text>
<text text-anchor="start" x="2451" y="-310.8" font-family="Times New Roman,serif" font-size="14.00">cellSize : tuple</text>
<text text-anchor="start" x="2451" y="-295.8" font-family="Times New Roman,serif" font-size="14.00">nbcascade</text>
<text text-anchor="start" x="2451" y="-280.8" font-family="Times New Roman,serif" font-size="14.00">nbins : int</text>
<text text-anchor="start" x="2451" y="-265.8" font-family="Times New Roman,serif" font-size="14.00">numPoints</text>
<text text-anchor="start" x="2451" y="-250.8" font-family="Times New Roman,serif" font-size="14.00">radius</text>
<text text-anchor="start" x="2451" y="-235.8" font-family="Times New Roman,serif" font-size="14.00">winSize : tuple</text>
<polyline fill="none" stroke="black" points="2443,-228 2622,-228 "/>
<text text-anchor="start" x="2451" y="-212.8" font-family="Times New Roman,serif" font-size="14.00">compute(images: np.ndarray)</text>
</g>
<!-- PP2_Particle_Filter.utils.Descriptors.HOGCASCADELBP&#45;&gt;PP2_Particle_Filter.utils.Descriptors.Descriptor -->
<g id="edge11" class="edge">
<title>PP2_Particle_Filter.utils.Descriptors.HOGCASCADELBP&#45;&gt;PP2_Particle_Filter.utils.Descriptors.Descriptor</title>
<path fill="none" stroke="black" d="M2575.77,-379.1C2585.77,-398.99 2596.09,-419.53 2605.04,-437.34"/>
<polygon fill="none" stroke="black" points="2601.97,-439.02 2609.58,-446.38 2608.22,-435.87 2601.97,-439.02"/>
</g>
<!-- PP2_Particle_Filter.utils.Descriptors.HOGCOLOR -->
<g id="node10" class="node">
<title>PP2_Particle_Filter.utils.Descriptors.HOGCOLOR</title>
<polygon fill="none" stroke="black" points="2640,-197.5 2640,-386.5 2819,-386.5 2819,-197.5 2640,-197.5"/>
<text text-anchor="middle" x="2729.5" y="-371.3" font-family="Times New Roman,serif" font-size="14.00">HOGCOLOR</text>
<polyline fill="none" stroke="black" points="2640,-363.5 2819,-363.5 "/>
<text text-anchor="start" x="2648" y="-348.3" font-family="Times New Roman,serif" font-size="14.00">blockSize : tuple</text>
<text text-anchor="start" x="2648" y="-333.3" font-family="Times New Roman,serif" font-size="14.00">blockStride : tuple</text>
<text text-anchor="start" x="2648" y="-318.3" font-family="Times New Roman,serif" font-size="14.00">cellSize : tuple</text>
<text text-anchor="start" x="2648" y="-303.3" font-family="Times New Roman,serif" font-size="14.00">freezeSize : bool</text>
<text text-anchor="start" x="2648" y="-288.3" font-family="Times New Roman,serif" font-size="14.00">hog</text>
<text text-anchor="start" x="2648" y="-273.3" font-family="Times New Roman,serif" font-size="14.00">nbins : int</text>
<text text-anchor="start" x="2648" y="-258.3" font-family="Times New Roman,serif" font-size="14.00">winSize : tuple</text>
<polyline fill="none" stroke="black" points="2640,-250.5 2819,-250.5 "/>
<text text-anchor="start" x="2648" y="-235.3" font-family="Times New Roman,serif" font-size="14.00">compute(images: np.ndarray)</text>
<text text-anchor="start" x="2648" y="-220.3" font-family="Times New Roman,serif" font-size="14.00">expectedF()</text>
<text text-anchor="start" x="2648" y="-205.3" font-family="Times New Roman,serif" font-size="14.00">update(winSize)</text>
</g>
<!-- PP2_Particle_Filter.utils.Descriptors.HOGCOLOR&#45;&gt;PP2_Particle_Filter.utils.Descriptors.Descriptor -->
<g id="edge12" class="edge">
<title>PP2_Particle_Filter.utils.Descriptors.HOGCOLOR&#45;&gt;PP2_Particle_Filter.utils.Descriptors.Descriptor</title>
<path fill="none" stroke="black" d="M2682.03,-386.5C2673.24,-403.82 2664.36,-421.32 2656.5,-436.78"/>
<polygon fill="none" stroke="black" points="2653.16,-435.63 2651.76,-446.13 2659.4,-438.8 2653.16,-435.63"/>
</g>
<!-- PP2_Particle_Filter.utils.Descriptors.LBP -->
<g id="node11" class="node">
<title>PP2_Particle_Filter.utils.Descriptors.LBP</title>
<polygon fill="none" stroke="black" points="2837.5,-250 2837.5,-334 3043.5,-334 3043.5,-250 2837.5,-250"/>
<text text-anchor="middle" x="2940.5" y="-318.8" font-family="Times New Roman,serif" font-size="14.00">LBP</text>
<polyline fill="none" stroke="black" points="2837.5,-311 3043.5,-311 "/>
<text text-anchor="start" x="2845.5" y="-295.8" font-family="Times New Roman,serif" font-size="14.00">numPoints</text>
<text text-anchor="start" x="2845.5" y="-280.8" font-family="Times New Roman,serif" font-size="14.00">radius</text>
<polyline fill="none" stroke="black" points="2837.5,-273 3043.5,-273 "/>
<text text-anchor="start" x="2845.5" y="-257.8" font-family="Times New Roman,serif" font-size="14.00">compute(images: np.ndarray, eps)</text>
</g>
<!-- PP2_Particle_Filter.utils.Descriptors.LBP&#45;&gt;PP2_Particle_Filter.utils.Descriptors.Descriptor -->
<g id="edge13" class="edge">
<title>PP2_Particle_Filter.utils.Descriptors.LBP&#45;&gt;PP2_Particle_Filter.utils.Descriptors.Descriptor</title>
<path fill="none" stroke="black" d="M2895.83,-334.05C2875.74,-351.46 2851.24,-371.32 2827.5,-387 2796.72,-407.33 2761.33,-426.62 2729.11,-442.78"/>
<polygon fill="none" stroke="black" points="2727.51,-439.67 2720.12,-447.25 2730.63,-445.93 2727.51,-439.67"/>
</g>
<!-- PP2_Particle_Filter.utils.Slicer.Slicer -->
<g id="node12" class="node">
<title>PP2_Particle_Filter.utils.Slicer.Slicer</title>
<polygon fill="none" stroke="black" points="3312.5,-424.5 3312.5,-553.5 3582.5,-553.5 3582.5,-424.5 3312.5,-424.5"/>
<text text-anchor="middle" x="3447.5" y="-538.3" font-family="Times New Roman,serif" font-size="14.00">Slicer</text>
<polyline fill="none" stroke="black" points="3312.5,-530.5 3582.5,-530.5 "/>
<text text-anchor="start" x="3320.5" y="-515.3" font-family="Times New Roman,serif" font-size="14.00">freezeSize : bool</text>
<text text-anchor="start" x="3320.5" y="-500.3" font-family="Times New Roman,serif" font-size="14.00">image : ndarray</text>
<text text-anchor="start" x="3320.5" y="-485.3" font-family="Times New Roman,serif" font-size="14.00">size : Tuple[int, int]</text>
<polyline fill="none" stroke="black" points="3312.5,-477.5 3582.5,-477.5 "/>
<text text-anchor="start" x="3320.5" y="-462.3" font-family="Times New Roman,serif" font-size="14.00">image_slice(particles: np.ndarray): np.ndarray</text>
<text text-anchor="start" x="3320.5" y="-447.3" font-family="Times New Roman,serif" font-size="14.00">updateImage(newImage: np.ndarray): None</text>
<text text-anchor="start" x="3320.5" y="-432.3" font-family="Times New Roman,serif" font-size="14.00">updateSize(newSize: Tuple[int, int]): None</text>
</g>
<!-- PP2_Particle_Filter.utils.Slicer.Slicer&#45;&gt;PP2_Particle_Filter.particle_filter.ParticleFilter.ParticleFilter -->
<g id="edge4" class="edge">
<title>PP2_Particle_Filter.utils.Slicer.Slicer&#45;&gt;PP2_Particle_Filter.particle_filter.ParticleFilter.ParticleFilter</title>
<path fill="none" stroke="black" d="M3447.5,-553.87C3447.5,-565.93 3447.5,-579.22 3447.5,-593.31"/>
<polygon fill="none" stroke="black" points="3447.5,-593.33 3451.5,-599.33 3447.5,-605.33 3443.5,-599.33 3447.5,-593.33"/>
<text text-anchor="middle" x="3462.5" y="-575.8" font-family="Times New Roman,serif" font-size="14.00" fill="red">slicer</text>
</g>
<!-- PP2_Particle_Filter.utils.Slicer.Crop -->
<g id="node13" class="node">
<title>PP2_Particle_Filter.utils.Slicer.Crop</title>
<polygon fill="none" stroke="black" points="3062,-257 3062,-327 3487,-327 3487,-257 3062,-257"/>
<text text-anchor="middle" x="3274.5" y="-311.8" font-family="Times New Roman,serif" font-size="14.00">Crop</text>
<polyline fill="none" stroke="black" points="3062,-304 3487,-304 "/>
<polyline fill="none" stroke="black" points="3062,-280 3487,-280 "/>
<text text-anchor="start" x="3070" y="-264.8" font-family="Times New Roman,serif" font-size="14.00">image_slice(image: np.ndarray, template_particle: np.ndarray): np.ndarray</text>
</g>
<!-- PP2_Particle_Filter.utils.Slicer.Crop&#45;&gt;PP2_Particle_Filter.utils.Slicer.Slicer -->
<g id="edge14" class="edge">
<title>PP2_Particle_Filter.utils.Slicer.Crop&#45;&gt;PP2_Particle_Filter.utils.Slicer.Slicer</title>
<path fill="none" stroke="black" d="M3305.03,-327.41C3326.94,-352.11 3357.24,-386.27 3384.27,-416.73"/>
<polygon fill="none" stroke="black" points="3381.81,-419.23 3391.07,-424.39 3387.05,-414.59 3381.81,-419.23"/>
</g>
<!-- PP2_Particle_Filter.utils.Slicer.Resize -->
<g id="node14" class="node">
<title>PP2_Particle_Filter.utils.Slicer.Resize</title>
<polygon fill="none" stroke="black" points="3505.5,-257 3505.5,-327 3775.5,-327 3775.5,-257 3505.5,-257"/>
<text text-anchor="middle" x="3640.5" y="-311.8" font-family="Times New Roman,serif" font-size="14.00">Resize</text>
<polyline fill="none" stroke="black" points="3505.5,-304 3775.5,-304 "/>
<polyline fill="none" stroke="black" points="3505.5,-280 3775.5,-280 "/>
<text text-anchor="start" x="3513.5" y="-264.8" font-family="Times New Roman,serif" font-size="14.00">image_slice(particles: np.ndarray): np.ndarray</text>
</g>
<!-- PP2_Particle_Filter.utils.Slicer.Resize&#45;&gt;PP2_Particle_Filter.utils.Slicer.Slicer -->
<g id="edge15" class="edge">
<title>PP2_Particle_Filter.utils.Slicer.Resize&#45;&gt;PP2_Particle_Filter.utils.Slicer.Slicer</title>
<path fill="none" stroke="black" d="M3606.44,-327.41C3581.89,-352.21 3547.9,-386.55 3517.65,-417.12"/>
<polygon fill="none" stroke="black" points="3515.01,-414.82 3510.46,-424.39 3519.98,-419.74 3515.01,-414.82"/>
</g>
<!-- PP2_Particle_Filter.utils.Similarity.Bhattacharyya_log -->
<g id="node15" class="node">
<title>PP2_Particle_Filter.utils.Similarity.Bhattacharyya_log</title>
<polygon fill="none" stroke="black" points="4063,-257 4063,-327 4506,-327 4506,-257 4063,-257"/>
<text text-anchor="middle" x="4284.5" y="-311.8" font-family="Times New Roman,serif" font-size="14.00">Bhattacharyya_log</text>
<polyline fill="none" stroke="black" points="4063,-304 4506,-304 "/>
<polyline fill="none" stroke="black" points="4063,-280 4506,-280 "/>
<text text-anchor="start" x="4071" y="-264.8" font-family="Times New Roman,serif" font-size="14.00">computeSimilarity(descriptors: np.ndarray, template: np.ndarray): np.ndarray</text>
</g>
<!-- PP2_Particle_Filter.utils.Similarity.Similarity -->
<g id="node24" class="node">
<title>PP2_Particle_Filter.utils.Similarity.Similarity</title>
<polygon fill="none" stroke="black" points="4524,-454 4524,-524 4967,-524 4967,-454 4524,-454"/>
<text text-anchor="middle" x="4745.5" y="-508.8" font-family="Times New Roman,serif" font-size="14.00">Similarity</text>
<polyline fill="none" stroke="black" points="4524,-501 4967,-501 "/>
<polyline fill="none" stroke="black" points="4524,-477 4967,-477 "/>
<text text-anchor="start" x="4532" y="-461.8" font-family="Times New Roman,serif" font-size="14.00">computeSimilarity(descriptors: np.ndarray, template: np.ndarray): np.ndarray</text>
</g>
<!-- PP2_Particle_Filter.utils.Similarity.Bhattacharyya_log&#45;&gt;PP2_Particle_Filter.utils.Similarity.Similarity -->
<g id="edge20" class="edge">
<title>PP2_Particle_Filter.utils.Similarity.Bhattacharyya_log&#45;&gt;PP2_Particle_Filter.utils.Similarity.Similarity</title>
<path fill="none" stroke="black" d="M4365.06,-327.08C4446.29,-361.44 4571.39,-414.35 4655.75,-450.03"/>
<polygon fill="none" stroke="black" points="4654.48,-453.3 4665.06,-453.97 4657.21,-446.85 4654.48,-453.3"/>
</g>
<!-- PP2_Particle_Filter.utils.Similarity.Bhattacharyya_sqrt -->
<g id="node16" class="node">
<title>PP2_Particle_Filter.utils.Similarity.Bhattacharyya_sqrt</title>
<polygon fill="none" stroke="black" points="4524,-257 4524,-327 4967,-327 4967,-257 4524,-257"/>
<text text-anchor="middle" x="4745.5" y="-311.8" font-family="Times New Roman,serif" font-size="14.00">Bhattacharyya_sqrt</text>
<polyline fill="none" stroke="black" points="4524,-304 4967,-304 "/>
<polyline fill="none" stroke="black" points="4524,-280 4967,-280 "/>
<text text-anchor="start" x="4532" y="-264.8" font-family="Times New Roman,serif" font-size="14.00">computeSimilarity(descriptors: np.ndarray, template: np.ndarray): np.ndarray</text>
</g>
<!-- PP2_Particle_Filter.utils.Similarity.Bhattacharyya_sqrt&#45;&gt;PP2_Particle_Filter.utils.Similarity.Similarity -->
<g id="edge21" class="edge">
<title>PP2_Particle_Filter.utils.Similarity.Bhattacharyya_sqrt&#45;&gt;PP2_Particle_Filter.utils.Similarity.Similarity</title>
<path fill="none" stroke="black" d="M4745.5,-327.41C4745.5,-359.85 4745.5,-408.63 4745.5,-443.91"/>
<polygon fill="none" stroke="black" points="4742,-443.93 4745.5,-453.93 4749,-443.93 4742,-443.93"/>
</g>
<!-- PP2_Particle_Filter.utils.Similarity.Cosine_Similarity -->
<g id="node17" class="node">
<title>PP2_Particle_Filter.utils.Similarity.Cosine_Similarity</title>
<polygon fill="none" stroke="black" points="4985,-257 4985,-327 5428,-327 5428,-257 4985,-257"/>
<text text-anchor="middle" x="5206.5" y="-311.8" font-family="Times New Roman,serif" font-size="14.00">Cosine_Similarity</text>
<polyline fill="none" stroke="black" points="4985,-304 5428,-304 "/>
<polyline fill="none" stroke="black" points="4985,-280 5428,-280 "/>
<text text-anchor="start" x="4993" y="-264.8" font-family="Times New Roman,serif" font-size="14.00">computeSimilarity(descriptors: np.ndarray, template: np.ndarray): np.ndarray</text>
</g>
<!-- PP2_Particle_Filter.utils.Similarity.Cosine_Similarity&#45;&gt;PP2_Particle_Filter.utils.Similarity.Similarity -->
<g id="edge22" class="edge">
<title>PP2_Particle_Filter.utils.Similarity.Cosine_Similarity&#45;&gt;PP2_Particle_Filter.utils.Similarity.Similarity</title>
<path fill="none" stroke="black" d="M5125.94,-327.08C5044.71,-361.44 4919.61,-414.35 4835.25,-450.03"/>
<polygon fill="none" stroke="black" points="4833.79,-446.85 4825.94,-453.97 4836.52,-453.3 4833.79,-446.85"/>
</g>
<!-- PP2_Particle_Filter.utils.Similarity.Kullback_Leibler_Divergence -->
<g id="node18" class="node">
<title>PP2_Particle_Filter.utils.Similarity.Kullback_Leibler_Divergence</title>
<polygon fill="none" stroke="black" points="5446,-257 5446,-327 5889,-327 5889,-257 5446,-257"/>
<text text-anchor="middle" x="5667.5" y="-311.8" font-family="Times New Roman,serif" font-size="14.00">Kullback_Leibler_Divergence</text>
<polyline fill="none" stroke="black" points="5446,-304 5889,-304 "/>
<polyline fill="none" stroke="black" points="5446,-280 5889,-280 "/>
<text text-anchor="start" x="5454" y="-264.8" font-family="Times New Roman,serif" font-size="14.00">computeSimilarity(descriptors: np.ndarray, template: np.ndarray): np.ndarray</text>
</g>
<!-- PP2_Particle_Filter.utils.Similarity.Kullback_Leibler_Divergence&#45;&gt;PP2_Particle_Filter.utils.Similarity.Similarity -->
<g id="edge23" class="edge">
<title>PP2_Particle_Filter.utils.Similarity.Kullback_Leibler_Divergence&#45;&gt;PP2_Particle_Filter.utils.Similarity.Similarity</title>
<path fill="none" stroke="black" d="M5596.74,-327C5551.79,-347.28 5491.85,-371.93 5436.5,-387 5286.28,-427.9 5112.9,-453.18 4977.39,-468.22"/>
<polygon fill="none" stroke="black" points="4976.85,-464.76 4967.29,-469.33 4977.61,-471.72 4976.85,-464.76"/>
</g>
<!-- PP2_Particle_Filter.particle_filter.ResampleMethods.Resampling -->
<g id="node19" class="node">
<title>PP2_Particle_Filter.particle_filter.ResampleMethods.Resampling</title>
<polygon fill="none" stroke="black" points="3794,-257 3794,-327 4045,-327 4045,-257 3794,-257"/>
<text text-anchor="middle" x="3919.5" y="-311.8" font-family="Times New Roman,serif" font-size="14.00">Resampling</text>
<polyline fill="none" stroke="black" points="3794,-304 4045,-304 "/>
<polyline fill="none" stroke="black" points="3794,-280 4045,-280 "/>
<text text-anchor="start" x="3802" y="-264.8" font-family="Times New Roman,serif" font-size="14.00">resample(weights: np.ndarray): np.ndarray</text>
</g>
<!-- PP2_Particle_Filter.particle_filter.ResampleMethods.Resampling&#45;&gt;PP2_Particle_Filter.particle_filter.ParticleFilter.ParticleFilter -->
<g id="edge1" class="edge">
<title>PP2_Particle_Filter.particle_filter.ResampleMethods.Resampling&#45;&gt;PP2_Particle_Filter.particle_filter.ParticleFilter.ParticleFilter</title>
<path fill="none" stroke="black" d="M3891.39,-327.01C3837.03,-392.77 3713.8,-541.84 3610.94,-666.28"/>
<polygon fill="black" stroke="black" points="3610.9,-666.32 3610.16,-673.5 3603.26,-675.57 3604,-668.4 3610.9,-666.32"/>
<text text-anchor="middle" x="3861.5" y="-485.3" font-family="Times New Roman,serif" font-size="14.00" fill="red">resample_method</text>
</g>
<!-- PP2_Particle_Filter.particle_filter.ResampleMethods.Systematic -->
<g id="node20" class="node">
<title>PP2_Particle_Filter.particle_filter.ResampleMethods.Systematic</title>
<polygon fill="none" stroke="black" points="3419,-45 3419,-115 3670,-115 3670,-45 3419,-45"/>
<text text-anchor="middle" x="3544.5" y="-99.8" font-family="Times New Roman,serif" font-size="14.00">Systematic</text>
<polyline fill="none" stroke="black" points="3419,-92 3670,-92 "/>
<polyline fill="none" stroke="black" points="3419,-68 3670,-68 "/>
<text text-anchor="start" x="3427" y="-52.8" font-family="Times New Roman,serif" font-size="14.00">resample(weights: np.ndarray): np.ndarray</text>
</g>
<!-- PP2_Particle_Filter.particle_filter.ResampleMethods.Systematic&#45;&gt;PP2_Particle_Filter.particle_filter.ResampleMethods.Resampling -->
<g id="edge19" class="edge">
<title>PP2_Particle_Filter.particle_filter.ResampleMethods.Systematic&#45;&gt;PP2_Particle_Filter.particle_filter.ResampleMethods.Resampling</title>
<path fill="none" stroke="black" d="M3596.99,-115.2C3621.2,-130.11 3650.69,-147.1 3678.5,-160 3723.77,-180.99 3740.06,-174.31 3784.5,-197 3813.98,-212.05 3844.44,-232.74 3868.94,-250.88"/>
<polygon fill="none" stroke="black" points="3866.91,-253.73 3877.02,-256.92 3871.11,-248.13 3866.91,-253.73"/>
</g>
<!-- PP2_Particle_Filter.particle_filter.ResampleMethods.Residual -->
<g id="node21" class="node">
<title>PP2_Particle_Filter.particle_filter.ResampleMethods.Residual</title>
<polygon fill="none" stroke="black" points="3688,-45 3688,-115 3939,-115 3939,-45 3688,-45"/>
<text text-anchor="middle" x="3813.5" y="-99.8" font-family="Times New Roman,serif" font-size="14.00">Residual</text>
<polyline fill="none" stroke="black" points="3688,-92 3939,-92 "/>
<polyline fill="none" stroke="black" points="3688,-68 3939,-68 "/>
<text text-anchor="start" x="3696" y="-52.8" font-family="Times New Roman,serif" font-size="14.00">resample(weights: np.ndarray): np.ndarray</text>
</g>
<!-- PP2_Particle_Filter.particle_filter.ResampleMethods.Residual&#45;&gt;PP2_Particle_Filter.particle_filter.ResampleMethods.Resampling -->
<g id="edge17" class="edge">
<title>PP2_Particle_Filter.particle_filter.ResampleMethods.Residual&#45;&gt;PP2_Particle_Filter.particle_filter.ResampleMethods.Resampling</title>
<path fill="none" stroke="black" d="M3830.77,-115.21C3849.02,-151.36 3877.84,-208.47 3897.66,-247.73"/>
<polygon fill="none" stroke="black" points="3894.61,-249.46 3902.24,-256.81 3900.86,-246.3 3894.61,-249.46"/>
</g>
<!-- PP2_Particle_Filter.particle_filter.ResampleMethods.Stratified -->
<g id="node22" class="node">
<title>PP2_Particle_Filter.particle_filter.ResampleMethods.Stratified</title>
<polygon fill="none" stroke="black" points="3957,-45 3957,-115 4208,-115 4208,-45 3957,-45"/>
<text text-anchor="middle" x="4082.5" y="-99.8" font-family="Times New Roman,serif" font-size="14.00">Stratified</text>
<polyline fill="none" stroke="black" points="3957,-92 4208,-92 "/>
<polyline fill="none" stroke="black" points="3957,-68 4208,-68 "/>
<text text-anchor="start" x="3965" y="-52.8" font-family="Times New Roman,serif" font-size="14.00">resample(weights: np.ndarray): np.ndarray</text>
</g>
<!-- PP2_Particle_Filter.particle_filter.ResampleMethods.Stratified&#45;&gt;PP2_Particle_Filter.particle_filter.ResampleMethods.Resampling -->
<g id="edge18" class="edge">
<title>PP2_Particle_Filter.particle_filter.ResampleMethods.Stratified&#45;&gt;PP2_Particle_Filter.particle_filter.ResampleMethods.Resampling</title>
<path fill="none" stroke="black" d="M4055.95,-115.21C4027.65,-151.67 3982.81,-209.44 3952.32,-248.72"/>
<polygon fill="none" stroke="black" points="3949.41,-246.76 3946.04,-256.81 3954.94,-251.05 3949.41,-246.76"/>
</g>
<!-- PP2_Particle_Filter.particle_filter.ResampleMethods.Multinomial -->
<g id="node23" class="node">
<title>PP2_Particle_Filter.particle_filter.ResampleMethods.Multinomial</title>
<polygon fill="none" stroke="black" points="4226,-45 4226,-115 4477,-115 4477,-45 4226,-45"/>
<text text-anchor="middle" x="4351.5" y="-99.8" font-family="Times New Roman,serif" font-size="14.00">Multinomial</text>
<polyline fill="none" stroke="black" points="4226,-92 4477,-92 "/>
<polyline fill="none" stroke="black" points="4226,-68 4477,-68 "/>
<text text-anchor="start" x="4234" y="-52.8" font-family="Times New Roman,serif" font-size="14.00">resample(weights: np.ndarray): np.ndarray</text>
</g>
<!-- PP2_Particle_Filter.particle_filter.ResampleMethods.Multinomial&#45;&gt;PP2_Particle_Filter.particle_filter.ResampleMethods.Resampling -->
<g id="edge16" class="edge">
<title>PP2_Particle_Filter.particle_filter.ResampleMethods.Multinomial&#45;&gt;PP2_Particle_Filter.particle_filter.ResampleMethods.Resampling</title>
<path fill="none" stroke="black" d="M4301.77,-115.05C4277.05,-130.67 4246.17,-148.27 4216.5,-160 4147.41,-187.3 4121.41,-166.88 4053.5,-197 4022.69,-210.66 3991.67,-231.84 3967.25,-250.64"/>
<polygon fill="none" stroke="black" points="3964.95,-247.99 3959.23,-256.91 3969.26,-253.51 3964.95,-247.99"/>
</g>
<!-- PP2_Particle_Filter.utils.Similarity.Similarity&#45;&gt;PP2_Particle_Filter.particle_filter.ParticleFilter.ParticleFilter -->
<g id="edge5" class="edge">
<title>PP2_Particle_Filter.utils.Similarity.Similarity&#45;&gt;PP2_Particle_Filter.particle_filter.ParticleFilter.ParticleFilter</title>
<path fill="none" stroke="black" d="M4627.45,-524.02C4395.83,-590.75 3881.27,-739.01 3614.75,-815.81"/>
<polygon fill="none" stroke="black" points="3614.56,-815.86 3609.9,-821.37 3603.03,-819.19 3607.69,-813.68 3614.56,-815.86"/>
<text text-anchor="middle" x="4457.5" y="-575.8" font-family="Times New Roman,serif" font-size="14.00" fill="red">similarity</text>
</g>
</g>
</svg>
