<?xml version="1.0" encoding="UTF-8" standalone="no"?>
<!DOCTYPE svg PUBLIC "-//W3C//DTD SVG 1.1//EN"
 "http://www.w3.org/Graphics/SVG/1.1/DTD/svg11.dtd">
<!-- Generated by graphviz version 3.0.0 (20220226.1711)
 -->
<!-- Title: similarity Pages: 1 -->
<svg width="1834pt" height="186pt"
 viewBox="0.00 0.00 1834.00 186.00" xmlns="http://www.w3.org/2000/svg" xmlns:xlink="http://www.w3.org/1999/xlink">
<g id="graph0" class="graph" transform="scale(1 1) rotate(0) translate(4 182)">
<title>similarity</title>
<polygon fill="white" stroke="transparent" points="-4,4 -4,-182 1830,-182 1830,4 -4,4"/>
<!-- PP2_Particle_Filter.utils.Similarity.Bhattacharyya_log -->
<g id="node1" class="node">
<title>PP2_Particle_Filter.utils.Similarity.Bhattacharyya_log</title>
<polygon fill="none" stroke="black" points="0,-0.5 0,-70.5 443,-70.5 443,-0.5 0,-0.5"/>
<text text-anchor="middle" x="221.5" y="-55.3" font-family="Times New Roman,serif" font-size="14.00">Bhattacharyya_log</text>
<polyline fill="none" stroke="black" points="0,-47.5 443,-47.5 "/>
<polyline fill="none" stroke="black" points="0,-23.5 443,-23.5 "/>
<text text-anchor="start" x="8" y="-8.3" font-family="Times New Roman,serif" font-size="14.00">computeSimilarity(descriptors: np.ndarray, template: np.ndarray): np.ndarray</text>
</g>
<!-- PP2_Particle_Filter.utils.Similarity.Similarity -->
<g id="node5" class="node">
<title>PP2_Particle_Filter.utils.Similarity.Similarity</title>
<polygon fill="none" stroke="black" points="691,-107.5 691,-177.5 1134,-177.5 1134,-107.5 691,-107.5"/>
<text text-anchor="middle" x="912.5" y="-162.3" font-family="Times New Roman,serif" font-size="14.00">Similarity</text>
<polyline fill="none" stroke="black" points="691,-154.5 1134,-154.5 "/>
<polyline fill="none" stroke="black" points="691,-130.5 1134,-130.5 "/>
<text text-anchor="start" x="699" y="-115.3" font-family="Times New Roman,serif" font-size="14.00">computeSimilarity(descriptors: np.ndarray, template: np.ndarray): np.ndarray</text>
</g>
<!-- PP2_Particle_Filter.utils.Similarity.Bhattacharyya_log&#45;&gt;PP2_Particle_Filter.utils.Similarity.Similarity -->
<g id="edge1" class="edge">
<title>PP2_Particle_Filter.utils.Similarity.Bhattacharyya_log&#45;&gt;PP2_Particle_Filter.utils.Similarity.Similarity</title>
<path fill="none" stroke="black" d="M443.46,-70.23C519.19,-81.74 604.04,-94.63 680.53,-106.25"/>
<polygon fill="none" stroke="black" points="680.37,-109.77 690.78,-107.81 681.42,-102.85 680.37,-109.77"/>
</g>
<!-- PP2_Particle_Filter.utils.Similarity.Bhattacharyya_sqrt -->
<g id="node2" class="node">
<title>PP2_Particle_Filter.utils.Similarity.Bhattacharyya_sqrt</title>
<polygon fill="none" stroke="black" points="461,-0.5 461,-70.5 904,-70.5 904,-0.5 461,-0.5"/>
<text text-anchor="middle" x="682.5" y="-55.3" font-family="Times New Roman,serif" font-size="14.00">Bhattacharyya_sqrt</text>
<polyline fill="none" stroke="black" points="461,-47.5 904,-47.5 "/>
<polyline fill="none" stroke="black" points="461,-23.5 904,-23.5 "/>
<text text-anchor="start" x="469" y="-8.3" font-family="Times New Roman,serif" font-size="14.00">computeSimilarity(descriptors: np.ndarray, template: np.ndarray): np.ndarray</text>
</g>
<!-- PP2_Particle_Filter.utils.Similarity.Bhattacharyya_sqrt&#45;&gt;PP2_Particle_Filter.utils.Similarity.Similarity -->
<g id="edge2" class="edge">
<title>PP2_Particle_Filter.utils.Similarity.Bhattacharyya_sqrt&#45;&gt;PP2_Particle_Filter.utils.Similarity.Similarity</title>
<path fill="none" stroke="black" d="M757.17,-70.59C779.99,-81 805.22,-92.53 828.6,-103.2"/>
<polygon fill="none" stroke="black" points="827.26,-106.43 837.81,-107.4 830.16,-100.06 827.26,-106.43"/>
</g>
<!-- PP2_Particle_Filter.utils.Similarity.Cosine_Similarity -->
<g id="node3" class="node">
<title>PP2_Particle_Filter.utils.Similarity.Cosine_Similarity</title>
<polygon fill="none" stroke="black" points="922,-0.5 922,-70.5 1365,-70.5 1365,-0.5 922,-0.5"/>
<text text-anchor="middle" x="1143.5" y="-55.3" font-family="Times New Roman,serif" font-size="14.00">Cosine_Similarity</text>
<polyline fill="none" stroke="black" points="922,-47.5 1365,-47.5 "/>
<polyline fill="none" stroke="black" points="922,-23.5 1365,-23.5 "/>
<text text-anchor="start" x="930" y="-8.3" font-family="Times New Roman,serif" font-size="14.00">computeSimilarity(descriptors: np.ndarray, template: np.ndarray): np.ndarray</text>
</g>
<!-- PP2_Particle_Filter.utils.Similarity.Cosine_Similarity&#45;&gt;PP2_Particle_Filter.utils.Similarity.Similarity -->
<g id="edge3" class="edge">
<title>PP2_Particle_Filter.utils.Similarity.Cosine_Similarity&#45;&gt;PP2_Particle_Filter.utils.Similarity.Similarity</title>
<path fill="none" stroke="black" d="M1068.5,-70.59C1045.59,-81 1020.24,-92.53 996.76,-103.2"/>
<polygon fill="none" stroke="black" points="995.17,-100.08 987.52,-107.4 998.07,-106.45 995.17,-100.08"/>
</g>
<!-- PP2_Particle_Filter.utils.Similarity.Kullback_Leibler_Divergence -->
<g id="node4" class="node">
<title>PP2_Particle_Filter.utils.Similarity.Kullback_Leibler_Divergence</title>
<polygon fill="none" stroke="black" points="1383,-0.5 1383,-70.5 1826,-70.5 1826,-0.5 1383,-0.5"/>
<text text-anchor="middle" x="1604.5" y="-55.3" font-family="Times New Roman,serif" font-size="14.00">Kullback_Leibler_Divergence</text>
<polyline fill="none" stroke="black" points="1383,-47.5 1826,-47.5 "/>
<polyline fill="none" stroke="black" points="1383,-23.5 1826,-23.5 "/>
<text text-anchor="start" x="1391" y="-8.3" font-family="Times New Roman,serif" font-size="14.00">computeSimilarity(descriptors: np.ndarray, template: np.ndarray): np.ndarray</text>
</g>
<!-- PP2_Particle_Filter.utils.Similarity.Kullback_Leibler_Divergence&#45;&gt;PP2_Particle_Filter.utils.Similarity.Similarity -->
<g id="edge4" class="edge">
<title>PP2_Particle_Filter.utils.Similarity.Kullback_Leibler_Divergence&#45;&gt;PP2_Particle_Filter.utils.Similarity.Similarity</title>
<path fill="none" stroke="black" d="M1382.69,-70.16C1306.65,-81.69 1221.37,-94.63 1144.54,-106.29"/>
<polygon fill="none" stroke="black" points="1143.6,-102.89 1134.24,-107.85 1144.65,-109.81 1143.6,-102.89"/>
</g>
</g>
</svg>
